<?xml version="1.0" encoding="UTF-8"?>
<svg xmlns="http://www.w3.org/2000/svg" xmlns:xlink="http://www.w3.org/1999/xlink"
     width="1180" height="410" viewBox="0 0 1180 410">
<defs>
</defs>
<rect x="0" y="0" width="1180" height="410" fill="#2b2b2b" />
<text x="60.0" y="30.0" font-size="24.0" fill="#ffffff" font-family="'Helvetica Neue', Helvetica, Arial, sans-serif" font-weight="bold">Preprocess / Alignment / Quantification Pipeline</text>
<rect x="60.0" y="85.0" width="145.0" height="110.0" rx="8" ry="8" fill="#373737" stroke="#595959" stroke-width="1.0" />
<circle cx="69.0" cy="72.0" r="9" fill="#333333" />
<text x="69.0" y="72.0" font-size="9" fill="#ffffff" font-family="'Helvetica Neue', Helvetica, Arial, sans-serif" font-weight="bold" text-anchor="middle" dominant-baseline="central">1</text>
<text x="83.0" y="72.0" font-size="13.0" fill="#aaaaaa" font-family="'Helvetica Neue', Helvetica, Arial, sans-serif" dominant-baseline="central">Preprocess</text>
<rect x="245.0" y="85.0" width="491.5" height="110.0" rx="8" ry="8" fill="#373737" stroke="#595959" stroke-width="1.0" />
<circle cx="254.0" cy="72.0" r="9" fill="#333333" />
<text x="254.0" y="72.0" font-size="9" fill="#ffffff" font-family="'Helvetica Neue', Helvetica, Arial, sans-serif" font-weight="bold" text-anchor="middle" dominant-baseline="central">2</text>
<text x="268.0" y="72.0" font-size="13.0" fill="#aaaaaa" font-family="'Helvetica Neue', Helvetica, Arial, sans-serif" dominant-baseline="central">Alignment</text>
<rect x="816.5" y="85.0" width="154.0" height="70.0" rx="8" ry="8" fill="#373737" stroke="#595959" stroke-width="1.0" />
<circle cx="825.5" cy="72.0" r="9" fill="#333333" />
<text x="825.5" y="72.0" font-size="9" fill="#ffffff" font-family="'Helvetica Neue', Helvetica, Arial, sans-serif" font-weight="bold" text-anchor="middle" dominant-baseline="central">3</text>
<text x="839.5" y="72.0" font-size="13.0" fill="#aaaaaa" font-family="'Helvetica Neue', Helvetica, Arial, sans-serif" dominant-baseline="central">Quantification</text>
<rect x="1020.5" y="85.0" width="100.0" height="70.0" rx="8" ry="8" fill="#373737" stroke="#595959" stroke-width="1.0" />
<circle cx="1029.5" cy="72.0" r="9" fill="#333333" />
<text x="1029.5" y="72.0" font-size="9" fill="#ffffff" font-family="'Helvetica Neue', Helvetica, Arial, sans-serif" font-weight="bold" text-anchor="middle" dominant-baseline="central">4</text>
<text x="1043.5" y="72.0" font-size="13.0" fill="#aaaaaa" font-family="'Helvetica Neue', Helvetica, Arial, sans-serif" dominant-baseline="central">Reporting</text>
<path d="M110.0,166.0 L150.0,166.0 Q160.0,166.0,169.13811548620257,161.9386153394655 L180.86188451379743,156.72805132720114 Q190.0,152.66666666666666,200.0,152.66666666666666 L205.0,152.66666666666666" stroke="#0570b0" stroke-width="3.0" fill="none" stroke-linecap="round" stroke-linejoin="round" />
<path d="M110.0,160.0 L150.0,160.0 Q160.0,160.0,169.13811548620257,155.9386153394655 L180.86188451379743,150.72805132720114 Q190.0,146.66666666666666,200.0,146.66666666666666 L205.0,146.66666666666666" stroke="#2db572" stroke-width="3.0" fill="none" stroke-linecap="round" stroke-linejoin="round" />
<path d="M205.0,152.66666666666666 L215.0,152.66666666666666" stroke="#0570b0" stroke-width="3.0" stroke-linecap="round" />
<path d="M215.0,152.66666666666666 L215.0,152.66666666666666 Q225.0,152.66666666666666,225.0,162.66666666666666 L225.0,221.0 Q225.0,234.0,238.0,234.0 L979.5,234.0 Q992.5,234.0,992.5,221.0 L992.5,139.0 Q992.5,126.0,1005.5,126.0 L1020.5,126.0" stroke="#0570b0" stroke-width="3.0" fill="none" stroke-linecap="round" stroke-linejoin="round" />
<path d="M215.0,152.66666666666666 L215.0,152.66666666666666 Q225.0,152.66666666666666,225.0,162.66666666666666 L225.0,221.0 Q225.0,234.0,238.0,234.0 L979.5,234.0 Q992.5,234.0,992.5,221.0 L992.5,139.0 Q992.5,126.0,1005.5,126.0 L1020.5,126.0" stroke="#0570b0" stroke-width="3.0" fill="none" stroke-linecap="round" stroke-linejoin="round" />
<path d="M245.0,146.66666666666666 L315.0,146.66666666666666 Q325.0,146.66666666666666,332.4740931868366,140.02302827836746 L347.5259068131634,126.6436383882992 Q355.0,120.0,365.0,120.0 L400.0,120.0" stroke="#2db572" stroke-width="3.0" fill="none" stroke-linecap="round" stroke-linejoin="round" />
<path d="M205.0,146.66666666666666 L215.0,146.66666666666666" stroke="#2db572" stroke-width="3.0" stroke-linecap="round" />
<path d="M215.0,146.66666666666666 L245.0,146.66666666666666" stroke="#2db572" stroke-width="3.0" stroke-linecap="round" />
<path d="M505.0,129.0 L553.5,129.0 Q563.5,129.0,569.5,137.0 L587.5,161.0 Q593.5,169.0,603.5,169.0 L623.5,169.0" stroke="#e63946" stroke-width="3.0" fill="none" stroke-linecap="round" stroke-linejoin="round" />
<path d="M110.0,126.0 L150.0,126.0 Q160.0,126.0,167.4740931868366,132.6436383882992 L182.5259068131634,146.02302827836746 Q190.0,152.66666666666666,200.0,152.66666666666666 L205.0,152.66666666666666" stroke="#0570b0" stroke-width="3.0" fill="none" stroke-linecap="round" stroke-linejoin="round" />
<path d="M1020.5,126.0 L1070.5,126.0" stroke="#0570b0" stroke-width="3.0" stroke-linecap="round" />
<path d="M1020.5,126.0 L1070.5,126.0" stroke="#0570b0" stroke-width="3.0" stroke-linecap="round" />
<path d="M400.0,123.0 L736.5,123.0" stroke="#f5c542" stroke-width="3.0" stroke-linecap="round" />
<path d="M1020.5,123.0 L1070.5,123.0" stroke="#f5c542" stroke-width="3.0" stroke-linecap="round" />
<path d="M736.5,123.0 L746.5,123.0" stroke="#f5c542" stroke-width="3.0" stroke-linecap="round" />
<path d="M746.5,123.0 L747.5,123.0 Q763.5,123.0,763.5,139.0 L763.5,223.0 Q763.5,239.0,779.5,239.0 L973.5,239.0 Q989.5,239.0,989.5,223.0 L989.5,139.0 Q989.5,123.0,1005.5,123.0 L1020.5,123.0" stroke="#f5c542" stroke-width="3.0" fill="none" stroke-linecap="round" stroke-linejoin="round" />
<path d="M295.0,120.0 L400.0,120.0" stroke="#2db572" stroke-width="3.0" stroke-linecap="round" />
<path d="M400.0,120.0 L505.0,120.0" stroke="#2db572" stroke-width="3.0" stroke-linecap="round" />
<path d="M866.5,120.0 L970.5,120.0" stroke="#2db572" stroke-width="3.0" stroke-linecap="round" />
<path d="M1020.5,120.0 L1070.5,120.0" stroke="#2db572" stroke-width="3.0" stroke-linecap="round" />
<path d="M505.0,120.0 L736.5,120.0" stroke="#2db572" stroke-width="3.0" stroke-linecap="round" />
<path d="M816.5,120.0 L866.5,120.0" stroke="#2db572" stroke-width="3.0" stroke-linecap="round" />
<path d="M970.5,120.0 L1020.5,120.0" stroke="#2db572" stroke-width="3.0" stroke-linecap="round" />
<path d="M736.5,120.0 L746.5,120.0" stroke="#2db572" stroke-width="3.0" stroke-linecap="round" />
<path d="M746.5,120.0 L816.5,120.0" stroke="#2db572" stroke-width="3.0" stroke-linecap="round" />
<rect x="105.0" y="121.0" width="10.0" height="10.0" rx="5.0" ry="5.0" fill="#ffffff" stroke="#333333" stroke-width="1.5" />
<rect x="105.0" y="155.0" width="10.0" height="16.0" rx="5.0" ry="5.0" fill="#ffffff" stroke="#333333" stroke-width="1.5" />
<rect x="290.0" y="115.0" width="10.0" height="10.0" rx="5.0" ry="5.0" fill="#ffffff" stroke="#333333" stroke-width="1.5" />
<rect x="395.0" y="115.0" width="10.0" height="13.0" rx="5.0" ry="5.0" fill="#ffffff" stroke="#333333" stroke-width="1.5" />
<rect x="500.0" y="115.0" width="10.0" height="19.0" rx="5.0" ry="5.0" fill="#ffffff" stroke="#333333" stroke-width="1.5" />
<rect x="618.5" y="164.0" width="10.0" height="10.0" rx="5.0" ry="5.0" fill="#ffffff" stroke="#333333" stroke-width="1.5" />
<rect x="861.5" y="115.0" width="10.0" height="10.0" rx="5.0" ry="5.0" fill="#ffffff" stroke="#333333" stroke-width="1.5" />
<rect x="1065.5" y="115.0" width="10.0" height="16.0" rx="5.0" ry="5.0" fill="#ffffff" stroke="#333333" stroke-width="1.5" />
<text x="321.0" y="104.0" font-size="13.0" fill="#e0e0e0" font-family="'Helvetica Neue', Helvetica, Arial, sans-serif" font-weight="bold" text-anchor="middle" dominant-baseline="auto">Star Genomegener</text>
<text x="110.0" y="110.0" font-size="13.0" fill="#e0e0e0" font-family="'Helvetica Neue', Helvetica, Arial, sans-serif" font-weight="bold" text-anchor="middle" dominant-baseline="auto">Fastqc</text>
<text x="874.5" y="136.0" font-size="13.0" fill="#e0e0e0" font-family="'Helvetica Neue', Helvetica, Arial, sans-serif" font-weight="bold" text-anchor="middle" dominant-baseline="hanging">Salmon Quant</text>
<text x="1070.5" y="104.0" font-size="13.0" fill="#e0e0e0" font-family="'Helvetica Neue', Helvetica, Arial, sans-serif" font-weight="bold" text-anchor="middle" dominant-baseline="auto">Multiqc</text>
<text x="110.0" y="144.0" font-size="13.0" fill="#e0e0e0" font-family="'Helvetica Neue', Helvetica, Arial, sans-serif" font-weight="bold" text-anchor="middle" dominant-baseline="auto">Trimgalore</text>
<text x="400.0" y="139.0" font-size="13.0" fill="#e0e0e0" font-family="'Helvetica Neue', Helvetica, Arial, sans-serif" font-weight="bold" text-anchor="middle" dominant-baseline="hanging">Star Align</text>
<text x="505.0" y="104.0" font-size="13.0" fill="#e0e0e0" font-family="'Helvetica Neue', Helvetica, Arial, sans-serif" font-weight="bold" text-anchor="middle" dominant-baseline="auto">Samtools Sort</text>
<text x="623.5" y="153.0" font-size="13.0" fill="#e0e0e0" font-family="'Helvetica Neue', Helvetica, Arial, sans-serif" font-weight="bold" text-anchor="middle" dominant-baseline="auto">Samtools Index</text>
<rect x="60.0" y="266.0" width="207.84" height="120.0" rx="6" ry="6" fill="rgba(0, 0, 0, 0.3)" />
<path d="M72.0,290.0 L96.0,290.0" stroke="#2db572" stroke-width="3.0" stroke-linecap="round" />
<text x="108.0" y="290.0" font-size="14.0" fill="#e0e0e0" font-family="'Helvetica Neue', Helvetica, Arial, sans-serif" dominant-baseline="central">Main</text>
<path d="M72.0,314.0 L96.0,314.0" stroke="#f5c542" stroke-width="3.0" stroke-linecap="round" />
<text x="108.0" y="314.0" font-size="14.0" fill="#e0e0e0" font-family="'Helvetica Neue', Helvetica, Arial, sans-serif" dominant-baseline="central">Alignment - Reporting</text>
<path d="M72.0,338.0 L96.0,338.0" stroke="#0570b0" stroke-width="3.0" stroke-linecap="round" />
<text x="108.0" y="338.0" font-size="14.0" fill="#e0e0e0" font-family="'Helvetica Neue', Helvetica, Arial, sans-serif" dominant-baseline="central">Preprocess - Reporting</text>
<path d="M72.0,362.0 L96.0,362.0" stroke="#e63946" stroke-width="3.0" stroke-linecap="round" />
<text x="108.0" y="362.0" font-size="14.0" fill="#e0e0e0" font-family="'Helvetica Neue', Helvetica, Arial, sans-serif" dominant-baseline="central">Spur</text>
<text x="1150.0" y="402.0" font-size="8" fill="rgba(150, 150, 150, 0.6)" font-family="'Helvetica Neue', Helvetica, Arial, sans-serif" text-anchor="end">created with nf-metro v0.4.7+dev</text>
</svg>