<?xml version="1.0" encoding="UTF-8"?>
<svg xmlns="http://www.w3.org/2000/svg" xmlns:xlink="http://www.w3.org/1999/xlink"
     width="768" height="525" viewBox="0 0 768 525">
<defs>
</defs>
<rect x="0" y="0" width="768" height="525" fill="#2b2b2b" />
<text x="60.0" y="30.0" font-size="18.0" fill="#ffffff" font-family="'Helvetica Neue', Helvetica, Arial, sans-serif" font-weight="bold">Fan-out Pipeline</text>
<rect x="30.0" y="85.0" width="188.0" height="70.0" rx="8" ry="8" fill="rgba(255, 255, 255, 0.06)" stroke="rgba(255, 255, 255, 0.2)" stroke-width="1.0" />
<circle cx="39.0" cy="72.0" r="9" fill="#333333" />
<text x="39.0" y="72.0" font-size="9" fill="#ffffff" font-family="'Helvetica Neue', Helvetica, Arial, sans-serif" font-weight="bold" text-anchor="middle" dominant-baseline="central">1</text>
<text x="53.0" y="72.0" font-size="10.0" fill="#aaaaaa" font-family="'Helvetica Neue', Helvetica, Arial, sans-serif" dominant-baseline="central">Pre-processing</text>
<rect x="268.0" y="85.0" width="230.0" height="70.0" rx="8" ry="8" fill="rgba(255, 255, 255, 0.06)" stroke="rgba(255, 255, 255, 0.2)" stroke-width="1.0" />
<circle cx="277.0" cy="72.0" r="9" fill="#333333" />
<text x="277.0" y="72.0" font-size="9" fill="#ffffff" font-family="'Helvetica Neue', Helvetica, Arial, sans-serif" font-weight="bold" text-anchor="middle" dominant-baseline="central">2</text>
<text x="291.0" y="72.0" font-size="10.0" fill="#aaaaaa" font-family="'Helvetica Neue', Helvetica, Arial, sans-serif" dominant-baseline="central">WGS Analysis</text>
<rect x="268.0" y="195.0" width="202.0" height="70.0" rx="8" ry="8" fill="rgba(255, 255, 255, 0.06)" stroke="rgba(255, 255, 255, 0.2)" stroke-width="1.0" />
<circle cx="277.0" cy="182.0" r="9" fill="#333333" />
<text x="277.0" y="182.0" font-size="9" fill="#ffffff" font-family="'Helvetica Neue', Helvetica, Arial, sans-serif" font-weight="bold" text-anchor="middle" dominant-baseline="central">3</text>
<text x="291.0" y="182.0" font-size="10.0" fill="#aaaaaa" font-family="'Helvetica Neue', Helvetica, Arial, sans-serif" dominant-baseline="central">WES Analysis</text>
<rect x="268.0" y="305.0" width="191.5" height="70.0" rx="8" ry="8" fill="rgba(255, 255, 255, 0.06)" stroke="rgba(255, 255, 255, 0.2)" stroke-width="1.0" />
<circle cx="277.0" cy="292.0" r="9" fill="#333333" />
<text x="277.0" y="292.0" font-size="9" fill="#ffffff" font-family="'Helvetica Neue', Helvetica, Arial, sans-serif" font-weight="bold" text-anchor="middle" dominant-baseline="central">4</text>
<text x="291.0" y="292.0" font-size="10.0" fill="#aaaaaa" font-family="'Helvetica Neue', Helvetica, Arial, sans-serif" dominant-baseline="central">Panel Analysis</text>
<rect x="548.0" y="85.0" width="160.0" height="70.0" rx="8" ry="8" fill="rgba(255, 255, 255, 0.06)" stroke="rgba(255, 255, 255, 0.2)" stroke-width="1.0" />
<circle cx="557.0" cy="72.0" r="9" fill="#333333" />
<text x="557.0" y="72.0" font-size="9" fill="#ffffff" font-family="'Helvetica Neue', Helvetica, Arial, sans-serif" font-weight="bold" text-anchor="middle" dominant-baseline="central">5</text>
<text x="571.0" y="72.0" font-size="10.0" fill="#aaaaaa" font-family="'Helvetica Neue', Helvetica, Arial, sans-serif" dominant-baseline="central">Annotation</text>
<path d="M318.0,346.0 L378.0,346.0" stroke="#2db572" stroke-width="3.0" stroke-linecap="round" />
<path d="M268.0,346.0 L318.0,346.0" stroke="#2db572" stroke-width="3.0" stroke-linecap="round" />
<path d="M378.0,346.0 L459.5,346.0" stroke="#2db572" stroke-width="3.0" stroke-linecap="round" />
<path d="M459.5,346.0 L511.5,346.0 Q524.5,346.0,524.5,333.0 L524.5,136.0 Q524.5,126.0,534.5,126.0 L548.0,126.0" stroke="#2db572" stroke-width="3.0" fill="none" stroke-linecap="round" stroke-linejoin="round" />
<path d="M318.0,233.0 L378.0,233.0" stroke="#0570b0" stroke-width="3.0" stroke-linecap="round" />
<path d="M268.0,233.0 L318.0,233.0" stroke="#0570b0" stroke-width="3.0" stroke-linecap="round" />
<path d="M378.0,233.0 L470.0,233.0" stroke="#0570b0" stroke-width="3.0" stroke-linecap="round" />
<path d="M470.0,233.0 L511.5,233.0 Q521.5,233.0,521.5,223.0 L521.5,136.0 Q521.5,123.0,534.5,123.0 L548.0,123.0" stroke="#0570b0" stroke-width="3.0" fill="none" stroke-linecap="round" stroke-linejoin="round" />
<path d="M80.0,126.0 L140.0,126.0" stroke="#2db572" stroke-width="3.0" stroke-linecap="round" />
<path d="M598.0,126.0 L658.0,126.0" stroke="#2db572" stroke-width="3.0" stroke-linecap="round" />
<path d="M140.0,126.0 L218.0,126.0" stroke="#2db572" stroke-width="3.0" stroke-linecap="round" />
<path d="M548.0,126.0 L598.0,126.0" stroke="#2db572" stroke-width="3.0" stroke-linecap="round" />
<path d="M218.0,126.0 L228.0,126.0" stroke="#2db572" stroke-width="3.0" stroke-linecap="round" />
<path d="M228.0,126.0 L232.5,126.0 Q242.5,126.0,242.5,136.0 L242.5,333.0 Q242.5,346.0,255.5,346.0 L268.0,346.0" stroke="#2db572" stroke-width="3.0" fill="none" stroke-linecap="round" stroke-linejoin="round" />
<path d="M80.0,123.0 L140.0,123.0" stroke="#0570b0" stroke-width="3.0" stroke-linecap="round" />
<path d="M598.0,123.0 L658.0,123.0" stroke="#0570b0" stroke-width="3.0" stroke-linecap="round" />
<path d="M140.0,123.0 L218.0,123.0" stroke="#0570b0" stroke-width="3.0" stroke-linecap="round" />
<path d="M548.0,123.0 L598.0,123.0" stroke="#0570b0" stroke-width="3.0" stroke-linecap="round" />
<path d="M218.0,123.0 L228.0,123.0" stroke="#0570b0" stroke-width="3.0" stroke-linecap="round" />
<path d="M228.0,123.0 L232.5,123.0 Q245.5,123.0,245.5,136.0 L245.5,223.0 Q245.5,233.0,255.5,233.0 L268.0,233.0" stroke="#0570b0" stroke-width="3.0" fill="none" stroke-linecap="round" stroke-linejoin="round" />
<path d="M80.0,120.0 L140.0,120.0" stroke="#e63946" stroke-width="3.0" stroke-linecap="round" />
<path d="M318.0,120.0 L378.0,120.0" stroke="#e63946" stroke-width="3.0" stroke-linecap="round" />
<path d="M598.0,120.0 L658.0,120.0" stroke="#e63946" stroke-width="3.0" stroke-linecap="round" />
<path d="M140.0,120.0 L218.0,120.0" stroke="#e63946" stroke-width="3.0" stroke-linecap="round" />
<path d="M268.0,120.0 L318.0,120.0" stroke="#e63946" stroke-width="3.0" stroke-linecap="round" />
<path d="M378.0,120.0 L498.0,120.0" stroke="#e63946" stroke-width="3.0" stroke-linecap="round" />
<path d="M548.0,120.0 L598.0,120.0" stroke="#e63946" stroke-width="3.0" stroke-linecap="round" />
<path d="M218.0,120.0 L228.0,120.0" stroke="#e63946" stroke-width="3.0" stroke-linecap="round" />
<path d="M228.0,120.0 L268.0,120.0" stroke="#e63946" stroke-width="3.0" stroke-linecap="round" />
<path d="M498.0,120.0 L548.0,120.0" stroke="#e63946" stroke-width="3.0" stroke-linecap="round" />
<rect x="75.0" y="115.0" width="10.0" height="16.0" rx="5.0" ry="5.0" fill="#ffffff" stroke="#333333" stroke-width="1.5" />
<rect x="135.0" y="115.0" width="10.0" height="16.0" rx="5.0" ry="5.0" fill="#ffffff" stroke="#333333" stroke-width="1.5" />
<rect x="313.0" y="115.0" width="10.0" height="10.0" rx="5.0" ry="5.0" fill="#ffffff" stroke="#333333" stroke-width="1.5" />
<rect x="373.0" y="115.0" width="10.0" height="10.0" rx="5.0" ry="5.0" fill="#ffffff" stroke="#333333" stroke-width="1.5" />
<rect x="313.0" y="228.0" width="10.0" height="10.0" rx="5.0" ry="5.0" fill="#ffffff" stroke="#333333" stroke-width="1.5" />
<rect x="373.0" y="228.0" width="10.0" height="10.0" rx="5.0" ry="5.0" fill="#ffffff" stroke="#333333" stroke-width="1.5" />
<rect x="313.0" y="341.0" width="10.0" height="10.0" rx="5.0" ry="5.0" fill="#ffffff" stroke="#333333" stroke-width="1.5" />
<rect x="373.0" y="341.0" width="10.0" height="10.0" rx="5.0" ry="5.0" fill="#ffffff" stroke="#333333" stroke-width="1.5" />
<rect x="593.0" y="115.0" width="10.0" height="16.0" rx="5.0" ry="5.0" fill="#ffffff" stroke="#333333" stroke-width="1.5" />
<rect x="653.0" y="115.0" width="10.0" height="16.0" rx="5.0" ry="5.0" fill="#ffffff" stroke="#333333" stroke-width="1.5" />
<text x="80.0" y="104.0" font-size="10.0" fill="#e0e0e0" font-family="'Helvetica Neue', Helvetica, Arial, sans-serif" text-anchor="middle" dominant-baseline="auto">FastQC</text>
<text x="318.0" y="136.0" font-size="10.0" fill="#e0e0e0" font-family="'Helvetica Neue', Helvetica, Arial, sans-serif" text-anchor="middle" dominant-baseline="hanging">BWA-MEM</text>
<text x="598.0" y="104.0" font-size="10.0" fill="#e0e0e0" font-family="'Helvetica Neue', Helvetica, Arial, sans-serif" text-anchor="middle" dominant-baseline="auto">VEP</text>
<text x="318.0" y="217.0" font-size="10.0" fill="#e0e0e0" font-family="'Helvetica Neue', Helvetica, Arial, sans-serif" text-anchor="middle" dominant-baseline="auto">BWA-MEM</text>
<text x="318.0" y="330.0" font-size="10.0" fill="#e0e0e0" font-family="'Helvetica Neue', Helvetica, Arial, sans-serif" text-anchor="middle" dominant-baseline="auto">Minimap2</text>
<text x="140.0" y="104.0" font-size="10.0" fill="#e0e0e0" font-family="'Helvetica Neue', Helvetica, Arial, sans-serif" text-anchor="middle" dominant-baseline="auto">Trimming</text>
<text x="378.0" y="104.0" font-size="10.0" fill="#e0e0e0" font-family="'Helvetica Neue', Helvetica, Arial, sans-serif" text-anchor="middle" dominant-baseline="auto">GATK HaplotypeCaller</text>
<text x="658.0" y="104.0" font-size="10.0" fill="#e0e0e0" font-family="'Helvetica Neue', Helvetica, Arial, sans-serif" text-anchor="middle" dominant-baseline="auto">Report</text>
<text x="378.0" y="217.0" font-size="10.0" fill="#e0e0e0" font-family="'Helvetica Neue', Helvetica, Arial, sans-serif" text-anchor="middle" dominant-baseline="auto">GATK Mutect2</text>
<text x="378.0" y="330.0" font-size="10.0" fill="#e0e0e0" font-family="'Helvetica Neue', Helvetica, Arial, sans-serif" text-anchor="middle" dominant-baseline="auto">FreeBayes</text>
<rect x="30.0" y="405.0" width="133.92" height="96.0" rx="6" ry="6" fill="rgba(0, 0, 0, 0.3)" />
<path d="M42.0,429.0 L66.0,429.0" stroke="#e63946" stroke-width="3.0" stroke-linecap="round" />
<text x="78.0" y="429.0" font-size="11.0" fill="#e0e0e0" font-family="'Helvetica Neue', Helvetica, Arial, sans-serif" dominant-baseline="central">Whole Genome</text>
<path d="M42.0,453.0 L66.0,453.0" stroke="#0570b0" stroke-width="3.0" stroke-linecap="round" />
<text x="78.0" y="453.0" font-size="11.0" fill="#e0e0e0" font-family="'Helvetica Neue', Helvetica, Arial, sans-serif" dominant-baseline="central">Whole Exome</text>
<path d="M42.0,477.0 L66.0,477.0" stroke="#2db572" stroke-width="3.0" stroke-linecap="round" />
<text x="78.0" y="477.0" font-size="11.0" fill="#e0e0e0" font-family="'Helvetica Neue', Helvetica, Arial, sans-serif" dominant-baseline="central">Targeted Panel</text>
<text x="738.0" y="517.0" font-size="8" fill="rgba(150, 150, 150, 0.6)" font-family="'Helvetica Neue', Helvetica, Arial, sans-serif" text-anchor="end">created with nf-metro v0.4.1+dev</text>
</svg>