<?xml version="1.0" encoding="UTF-8"?>
<svg xmlns="http://www.w3.org/2000/svg" xmlns:xlink="http://www.w3.org/1999/xlink"
     width="860" height="339" viewBox="0 0 860 339">
<defs>
</defs>
<rect x="0" y="0" width="860" height="339" fill="#2b2b2b" />
<text x="60.0" y="30.0" font-size="24.0" fill="#ffffff" font-family="'Helvetica Neue', Helvetica, Arial, sans-serif" font-weight="bold" class="nf-metro-title">Section Directions</text>
<rect x="30.0" y="85.0" width="160.0" height="70.0" rx="8" ry="8" fill="#373737" stroke="#595959" stroke-width="1.0" />
<circle cx="41.0" cy="70.0" r="11" fill="#333333" class="nf-metro-section-num-circle" />
<text x="41.0" y="70.0" font-size="12" fill="#ffffff" font-family="'Helvetica Neue', Helvetica, Arial, sans-serif" font-weight="bold" text-anchor="middle" dy="0.3em">1</text>
<text x="57.0" y="70.0" font-size="16.0" fill="#aaaaaa" font-family="'Helvetica Neue', Helvetica, Arial, sans-serif" font-weight="bold" dy="0.3em" class="nf-metro-section-label">Pre-processing</text>
<rect x="240.0" y="85.0" width="160.0" height="70.0" rx="8" ry="8" fill="#373737" stroke="#595959" stroke-width="1.0" />
<circle cx="251.0" cy="70.0" r="11" fill="#333333" class="nf-metro-section-num-circle" />
<text x="251.0" y="70.0" font-size="12" fill="#ffffff" font-family="'Helvetica Neue', Helvetica, Arial, sans-serif" font-weight="bold" text-anchor="middle" dy="0.3em">2</text>
<text x="267.0" y="70.0" font-size="16.0" fill="#aaaaaa" font-family="'Helvetica Neue', Helvetica, Arial, sans-serif" font-weight="bold" dy="0.3em" class="nf-metro-section-label">RNA Analysis</text>
<rect x="240.0" y="205.0" width="160.0" height="70.0" rx="8" ry="8" fill="#373737" stroke="#595959" stroke-width="1.0" />
<circle cx="251.0" cy="190.0" r="11" fill="#333333" class="nf-metro-section-num-circle" />
<text x="251.0" y="190.0" font-size="12" fill="#ffffff" font-family="'Helvetica Neue', Helvetica, Arial, sans-serif" font-weight="bold" text-anchor="middle" dy="0.3em">3</text>
<text x="267.0" y="190.0" font-size="16.0" fill="#aaaaaa" font-family="'Helvetica Neue', Helvetica, Arial, sans-serif" font-weight="bold" dy="0.3em" class="nf-metro-section-label">DNA Analysis</text>
<rect x="450.0" y="85.0" width="140.5" height="230.0" rx="8" ry="8" fill="#373737" stroke="#595959" stroke-width="1.0" />
<circle cx="461.0" cy="70.0" r="11" fill="#333333" class="nf-metro-section-num-circle" />
<text x="461.0" y="70.0" font-size="12" fill="#ffffff" font-family="'Helvetica Neue', Helvetica, Arial, sans-serif" font-weight="bold" text-anchor="middle" dy="0.3em">4</text>
<text x="477.0" y="70.0" font-size="16.0" fill="#aaaaaa" font-family="'Helvetica Neue', Helvetica, Arial, sans-serif" font-weight="bold" dy="0.3em" class="nf-metro-section-label">Post-processing</text>
<rect x="640.5" y="245.0" width="160.0" height="70.0" rx="8" ry="8" fill="#373737" stroke="#595959" stroke-width="1.0" />
<circle cx="651.5" cy="230.0" r="11" fill="#333333" class="nf-metro-section-num-circle" />
<text x="651.5" y="230.0" font-size="12" fill="#ffffff" font-family="'Helvetica Neue', Helvetica, Arial, sans-serif" font-weight="bold" text-anchor="middle" dy="0.3em">5</text>
<text x="667.5" y="230.0" font-size="16.0" fill="#aaaaaa" font-family="'Helvetica Neue', Helvetica, Arial, sans-serif" font-weight="bold" dy="0.3em" class="nf-metro-section-label">Reporting</text>
<path d="M690.5,283.0 L750.5,283.0" stroke="#2db572" stroke-width="3.0" stroke-linecap="round" />
<path d="M640.5,283.0 L690.5,283.0" stroke="#2db572" stroke-width="3.0" stroke-linecap="round" />
<path d="M590.5,283.0 L640.5,283.0" stroke="#2db572" stroke-width="3.0" stroke-linecap="round" />
<path d="M690.5,280.0 L750.5,280.0" stroke="#e63946" stroke-width="3.0" stroke-linecap="round" />
<path d="M640.5,280.0 L690.5,280.0" stroke="#e63946" stroke-width="3.0" stroke-linecap="round" />
<path d="M590.5,280.0 L640.5,280.0" stroke="#e63946" stroke-width="3.0" stroke-linecap="round" />
<path d="M290.0,243.0 L350.0,243.0" stroke="#e63946" stroke-width="3.0" stroke-linecap="round" />
<path d="M240.0,243.0 L290.0,243.0" stroke="#e63946" stroke-width="3.0" stroke-linecap="round" />
<path d="M350.0,243.0 L400.0,243.0" stroke="#e63946" stroke-width="3.0" stroke-linecap="round" />
<path d="M400.0,243.0 L415.0,243.0 Q425.0,243.0,425.0,233.0 L425.0,133.0 Q425.0,123.0,435.0,123.0 L450.0,123.0" stroke="#e63946" stroke-width="3.0" fill="none" stroke-linecap="round" stroke-linejoin="round" />
<path d="M540.5,240.0 L540.5,270.0 Q540.5,283.0,553.5,283.0 L590.5,283.0" stroke="#2db572" stroke-width="3.0" fill="none" stroke-linecap="round" stroke-linejoin="round" />
<path d="M543.5,240.0 L543.5,270.0 Q543.5,280.0,553.5,280.0 L590.5,280.0" stroke="#e63946" stroke-width="3.0" fill="none" stroke-linecap="round" stroke-linejoin="round" />
<path d="M543.5,200.0 L543.5,240.0" stroke="#2db572" stroke-width="3.0" stroke-linecap="round" />
<path d="M540.5,200.0 L540.5,240.0" stroke="#e63946" stroke-width="3.0" stroke-linecap="round" />
<path d="M543.5,160.0 L543.5,200.0" stroke="#2db572" stroke-width="3.0" stroke-linecap="round" />
<path d="M540.5,160.0 L540.5,200.0" stroke="#e63946" stroke-width="3.0" stroke-linecap="round" />
<path d="M80.0,123.0 L140.0,123.0" stroke="#e63946" stroke-width="3.0" stroke-linecap="round" />
<path d="M140.0,123.0 L190.0,123.0" stroke="#e63946" stroke-width="3.0" stroke-linecap="round" />
<path d="M450.0,123.0 L530.5,123.0 Q540.5,123.0,540.5,133.0 L540.5,160.0" stroke="#e63946" stroke-width="3.0" fill="none" stroke-linecap="round" stroke-linejoin="round" />
<path d="M190.0,123.0 L200.0,123.0" stroke="#e63946" stroke-width="3.0" stroke-linecap="round" />
<path d="M200.0,123.0 L203.0,123.0 Q213.0,123.0,213.0,133.0 L213.0,233.0 Q213.0,243.0,223.0,243.0 L240.0,243.0" stroke="#e63946" stroke-width="3.0" fill="none" stroke-linecap="round" stroke-linejoin="round" />
<path d="M80.0,120.0 L140.0,120.0" stroke="#2db572" stroke-width="3.0" stroke-linecap="round" />
<path d="M290.0,120.0 L350.0,120.0" stroke="#2db572" stroke-width="3.0" stroke-linecap="round" />
<path d="M140.0,120.0 L190.0,120.0" stroke="#2db572" stroke-width="3.0" stroke-linecap="round" />
<path d="M240.0,120.0 L290.0,120.0" stroke="#2db572" stroke-width="3.0" stroke-linecap="round" />
<path d="M350.0,120.0 L400.0,120.0" stroke="#2db572" stroke-width="3.0" stroke-linecap="round" />
<path d="M450.0,120.0 L530.5,120.0 Q543.5,120.0,543.5,133.0 L543.5,160.0" stroke="#2db572" stroke-width="3.0" fill="none" stroke-linecap="round" stroke-linejoin="round" />
<path d="M190.0,120.0 L200.0,120.0" stroke="#2db572" stroke-width="3.0" stroke-linecap="round" />
<path d="M200.0,120.0 L240.0,120.0" stroke="#2db572" stroke-width="3.0" stroke-linecap="round" />
<path d="M400.0,120.0 L450.0,120.0" stroke="#2db572" stroke-width="3.0" stroke-linecap="round" />
<rect x="75.0" y="115.0" width="10.0" height="13.0" rx="5.0" ry="5.0" fill="#ffffff" stroke="#333333" stroke-width="1.5" />
<rect x="135.0" y="115.0" width="10.0" height="13.0" rx="5.0" ry="5.0" fill="#ffffff" stroke="#333333" stroke-width="1.5" />
<rect x="285.0" y="115.0" width="10.0" height="10.0" rx="5.0" ry="5.0" fill="#ffffff" stroke="#333333" stroke-width="1.5" />
<rect x="345.0" y="115.0" width="10.0" height="10.0" rx="5.0" ry="5.0" fill="#ffffff" stroke="#333333" stroke-width="1.5" />
<rect x="285.0" y="238.0" width="10.0" height="10.0" rx="5.0" ry="5.0" fill="#ffffff" stroke="#333333" stroke-width="1.5" />
<rect x="345.0" y="238.0" width="10.0" height="10.0" rx="5.0" ry="5.0" fill="#ffffff" stroke="#333333" stroke-width="1.5" />
<rect x="535.5" y="155.0" width="13.0" height="10.0" rx="5.0" ry="5.0" fill="#ffffff" stroke="#333333" stroke-width="1.5" />
<rect x="535.5" y="195.0" width="13.0" height="10.0" rx="5.0" ry="5.0" fill="#ffffff" stroke="#333333" stroke-width="1.5" />
<rect x="535.5" y="235.0" width="13.0" height="10.0" rx="5.0" ry="5.0" fill="#ffffff" stroke="#333333" stroke-width="1.5" />
<rect x="685.5" y="275.0" width="10.0" height="13.0" rx="5.0" ry="5.0" fill="#ffffff" stroke="#333333" stroke-width="1.5" />
<rect x="745.5" y="275.0" width="10.0" height="13.0" rx="5.0" ry="5.0" fill="#ffffff" stroke="#333333" stroke-width="1.5" />
<text x="80.0" y="134.0" font-size="13.0" fill="#e0e0e0" font-family="'Helvetica Neue', Helvetica, Arial, sans-serif" font-weight="bold" text-anchor="middle" dominant-baseline="hanging">FastQC</text>
<text x="290.0" y="131.0" font-size="13.0" fill="#e0e0e0" font-family="'Helvetica Neue', Helvetica, Arial, sans-serif" font-weight="bold" text-anchor="middle" dominant-baseline="hanging">STAR</text>
<text x="528.0" y="160.0" font-size="13.0" fill="#e0e0e0" font-family="'Helvetica Neue', Helvetica, Arial, sans-serif" font-weight="bold" text-anchor="end" dominant-baseline="central">SAMtools</text>
<text x="690.5" y="294.0" font-size="13.0" fill="#e0e0e0" font-family="'Helvetica Neue', Helvetica, Arial, sans-serif" font-weight="bold" text-anchor="middle" dominant-baseline="hanging">MultiQC</text>
<text x="290.0" y="254.0" font-size="13.0" fill="#e0e0e0" font-family="'Helvetica Neue', Helvetica, Arial, sans-serif" font-weight="bold" text-anchor="middle" dominant-baseline="hanging">BWA-MEM</text>
<text x="140.0" y="106.0" font-size="13.0" fill="#e0e0e0" font-family="'Helvetica Neue', Helvetica, Arial, sans-serif" font-weight="bold" text-anchor="middle" dominant-baseline="auto">Trimming</text>
<text x="350.0" y="106.0" font-size="13.0" fill="#e0e0e0" font-family="'Helvetica Neue', Helvetica, Arial, sans-serif" font-weight="bold" text-anchor="middle" dominant-baseline="auto">Salmon</text>
<text x="528.0" y="200.0" font-size="13.0" fill="#e0e0e0" font-family="'Helvetica Neue', Helvetica, Arial, sans-serif" font-weight="bold" text-anchor="end" dominant-baseline="central">Picard</text>
<text x="750.5" y="266.0" font-size="13.0" fill="#e0e0e0" font-family="'Helvetica Neue', Helvetica, Arial, sans-serif" font-weight="bold" text-anchor="middle" dominant-baseline="auto">Report</text>
<text x="350.0" y="229.0" font-size="13.0" fill="#e0e0e0" font-family="'Helvetica Neue', Helvetica, Arial, sans-serif" font-weight="bold" text-anchor="middle" dominant-baseline="auto">GATK</text>
<text x="528.0" y="240.0" font-size="13.0" fill="#e0e0e0" font-family="'Helvetica Neue', Helvetica, Arial, sans-serif" font-weight="bold" text-anchor="end" dominant-baseline="central">BEDTools</text>
<rect x="30.0" y="243.0" width="107.03999999999999" height="72.0" rx="6" ry="6" fill="rgba(0, 0, 0, 0.3)" />
<path d="M42.0,267.0 L66.0,267.0" stroke="#2db572" stroke-width="3.0" stroke-linecap="round" />
<text x="78.0" y="267.0" font-size="14.0" fill="#e0e0e0" font-family="'Helvetica Neue', Helvetica, Arial, sans-serif" dy="0.3em">RNA-seq</text>
<path d="M42.0,291.0 L66.0,291.0" stroke="#e63946" stroke-width="3.0" stroke-linecap="round" />
<text x="78.0" y="291.0" font-size="14.0" fill="#e0e0e0" font-family="'Helvetica Neue', Helvetica, Arial, sans-serif" dy="0.3em">DNA-seq</text>
<text x="830.0" y="331.0" font-size="8" fill="rgba(150, 150, 150, 0.6)" font-family="'Helvetica Neue', Helvetica, Arial, sans-serif" text-anchor="end">created with nf-metro v0.5.3+dev</text>
</svg>