<?xml version="1.0" encoding="UTF-8"?>
<svg xmlns="http://www.w3.org/2000/svg" xmlns:xlink="http://www.w3.org/1999/xlink"
     width="730" height="377" viewBox="0 0 730 377">
<defs>
</defs>
<rect x="0" y="0" width="730" height="377" fill="#2b2b2b" />
<text x="60.0" y="30.0" font-size="24.0" fill="#ffffff" font-family="'Helvetica Neue', Helvetica, Arial, sans-serif" font-weight="bold" class="nf-metro-title">Multi-Line Bundle</text>
<rect x="30.0" y="85.0" width="160.0" height="70.0" rx="8" ry="8" fill="#373737" stroke="#595959" stroke-width="1.0" />
<circle cx="41.0" cy="70.0" r="11" fill="#333333" class="nf-metro-section-num-circle" />
<text x="41.0" y="70.0" font-size="12" fill="#ffffff" font-family="'Helvetica Neue', Helvetica, Arial, sans-serif" font-weight="bold" text-anchor="middle" dy="0.3em">1</text>
<text x="57.0" y="70.0" font-size="16.0" fill="#aaaaaa" font-family="'Helvetica Neue', Helvetica, Arial, sans-serif" font-weight="bold" dy="0.3em" class="nf-metro-section-label">Input</text>
<rect x="240.0" y="85.0" width="220.0" height="70.0" rx="8" ry="8" fill="#373737" stroke="#595959" stroke-width="1.0" />
<circle cx="251.0" cy="70.0" r="11" fill="#333333" class="nf-metro-section-num-circle" />
<text x="251.0" y="70.0" font-size="12" fill="#ffffff" font-family="'Helvetica Neue', Helvetica, Arial, sans-serif" font-weight="bold" text-anchor="middle" dy="0.3em">2</text>
<text x="267.0" y="70.0" font-size="16.0" fill="#aaaaaa" font-family="'Helvetica Neue', Helvetica, Arial, sans-serif" font-weight="bold" dy="0.3em" class="nf-metro-section-label">Processing</text>
<rect x="510.0" y="85.0" width="160.0" height="70.0" rx="8" ry="8" fill="#373737" stroke="#595959" stroke-width="1.0" />
<circle cx="521.0" cy="70.0" r="11" fill="#333333" class="nf-metro-section-num-circle" />
<text x="521.0" y="70.0" font-size="12" fill="#ffffff" font-family="'Helvetica Neue', Helvetica, Arial, sans-serif" font-weight="bold" text-anchor="middle" dy="0.3em">3</text>
<text x="537.0" y="70.0" font-size="16.0" fill="#aaaaaa" font-family="'Helvetica Neue', Helvetica, Arial, sans-serif" font-weight="bold" dy="0.3em" class="nf-metro-section-label">Output</text>
<path d="M80.0,135.0 L140.0,135.0" stroke="#7b2d3b" stroke-width="3.0" stroke-linecap="round" />
<path d="M290.0,135.0 L350.0,135.0" stroke="#7b2d3b" stroke-width="3.0" stroke-linecap="round" />
<path d="M350.0,135.0 L410.0,135.0" stroke="#7b2d3b" stroke-width="3.0" stroke-linecap="round" />
<path d="M560.0,135.0 L620.0,135.0" stroke="#7b2d3b" stroke-width="3.0" stroke-linecap="round" />
<path d="M140.0,135.0 L190.0,135.0" stroke="#7b2d3b" stroke-width="3.0" stroke-linecap="round" />
<path d="M240.0,135.0 L290.0,135.0" stroke="#7b2d3b" stroke-width="3.0" stroke-linecap="round" />
<path d="M410.0,135.0 L460.0,135.0" stroke="#7b2d3b" stroke-width="3.0" stroke-linecap="round" />
<path d="M510.0,135.0 L560.0,135.0" stroke="#7b2d3b" stroke-width="3.0" stroke-linecap="round" />
<path d="M190.0,135.0 L240.0,135.0" stroke="#7b2d3b" stroke-width="3.0" stroke-linecap="round" />
<path d="M460.0,135.0 L510.0,135.0" stroke="#7b2d3b" stroke-width="3.0" stroke-linecap="round" />
<path d="M80.0,132.0 L140.0,132.0" stroke="#ff8c00" stroke-width="3.0" stroke-linecap="round" />
<path d="M290.0,132.0 L350.0,132.0" stroke="#ff8c00" stroke-width="3.0" stroke-linecap="round" />
<path d="M350.0,132.0 L410.0,132.0" stroke="#ff8c00" stroke-width="3.0" stroke-linecap="round" />
<path d="M560.0,132.0 L620.0,132.0" stroke="#ff8c00" stroke-width="3.0" stroke-linecap="round" />
<path d="M140.0,132.0 L190.0,132.0" stroke="#ff8c00" stroke-width="3.0" stroke-linecap="round" />
<path d="M240.0,132.0 L290.0,132.0" stroke="#ff8c00" stroke-width="3.0" stroke-linecap="round" />
<path d="M410.0,132.0 L460.0,132.0" stroke="#ff8c00" stroke-width="3.0" stroke-linecap="round" />
<path d="M510.0,132.0 L560.0,132.0" stroke="#ff8c00" stroke-width="3.0" stroke-linecap="round" />
<path d="M190.0,132.0 L240.0,132.0" stroke="#ff8c00" stroke-width="3.0" stroke-linecap="round" />
<path d="M460.0,132.0 L510.0,132.0" stroke="#ff8c00" stroke-width="3.0" stroke-linecap="round" />
<path d="M80.0,129.0 L140.0,129.0" stroke="#f5c542" stroke-width="3.0" stroke-linecap="round" />
<path d="M290.0,129.0 L350.0,129.0" stroke="#f5c542" stroke-width="3.0" stroke-linecap="round" />
<path d="M350.0,129.0 L410.0,129.0" stroke="#f5c542" stroke-width="3.0" stroke-linecap="round" />
<path d="M560.0,129.0 L620.0,129.0" stroke="#f5c542" stroke-width="3.0" stroke-linecap="round" />
<path d="M140.0,129.0 L190.0,129.0" stroke="#f5c542" stroke-width="3.0" stroke-linecap="round" />
<path d="M240.0,129.0 L290.0,129.0" stroke="#f5c542" stroke-width="3.0" stroke-linecap="round" />
<path d="M410.0,129.0 L460.0,129.0" stroke="#f5c542" stroke-width="3.0" stroke-linecap="round" />
<path d="M510.0,129.0 L560.0,129.0" stroke="#f5c542" stroke-width="3.0" stroke-linecap="round" />
<path d="M190.0,129.0 L240.0,129.0" stroke="#f5c542" stroke-width="3.0" stroke-linecap="round" />
<path d="M460.0,129.0 L510.0,129.0" stroke="#f5c542" stroke-width="3.0" stroke-linecap="round" />
<path d="M80.0,126.0 L140.0,126.0" stroke="#0570b0" stroke-width="3.0" stroke-linecap="round" />
<path d="M290.0,126.0 L350.0,126.0" stroke="#0570b0" stroke-width="3.0" stroke-linecap="round" />
<path d="M350.0,126.0 L410.0,126.0" stroke="#0570b0" stroke-width="3.0" stroke-linecap="round" />
<path d="M560.0,126.0 L620.0,126.0" stroke="#0570b0" stroke-width="3.0" stroke-linecap="round" />
<path d="M140.0,126.0 L190.0,126.0" stroke="#0570b0" stroke-width="3.0" stroke-linecap="round" />
<path d="M240.0,126.0 L290.0,126.0" stroke="#0570b0" stroke-width="3.0" stroke-linecap="round" />
<path d="M410.0,126.0 L460.0,126.0" stroke="#0570b0" stroke-width="3.0" stroke-linecap="round" />
<path d="M510.0,126.0 L560.0,126.0" stroke="#0570b0" stroke-width="3.0" stroke-linecap="round" />
<path d="M190.0,126.0 L240.0,126.0" stroke="#0570b0" stroke-width="3.0" stroke-linecap="round" />
<path d="M460.0,126.0 L510.0,126.0" stroke="#0570b0" stroke-width="3.0" stroke-linecap="round" />
<path d="M80.0,123.0 L140.0,123.0" stroke="#2db572" stroke-width="3.0" stroke-linecap="round" />
<path d="M290.0,123.0 L350.0,123.0" stroke="#2db572" stroke-width="3.0" stroke-linecap="round" />
<path d="M350.0,123.0 L410.0,123.0" stroke="#2db572" stroke-width="3.0" stroke-linecap="round" />
<path d="M560.0,123.0 L620.0,123.0" stroke="#2db572" stroke-width="3.0" stroke-linecap="round" />
<path d="M140.0,123.0 L190.0,123.0" stroke="#2db572" stroke-width="3.0" stroke-linecap="round" />
<path d="M240.0,123.0 L290.0,123.0" stroke="#2db572" stroke-width="3.0" stroke-linecap="round" />
<path d="M410.0,123.0 L460.0,123.0" stroke="#2db572" stroke-width="3.0" stroke-linecap="round" />
<path d="M510.0,123.0 L560.0,123.0" stroke="#2db572" stroke-width="3.0" stroke-linecap="round" />
<path d="M190.0,123.0 L240.0,123.0" stroke="#2db572" stroke-width="3.0" stroke-linecap="round" />
<path d="M460.0,123.0 L510.0,123.0" stroke="#2db572" stroke-width="3.0" stroke-linecap="round" />
<path d="M80.0,120.0 L140.0,120.0" stroke="#e63946" stroke-width="3.0" stroke-linecap="round" />
<path d="M290.0,120.0 L350.0,120.0" stroke="#e63946" stroke-width="3.0" stroke-linecap="round" />
<path d="M350.0,120.0 L410.0,120.0" stroke="#e63946" stroke-width="3.0" stroke-linecap="round" />
<path d="M560.0,120.0 L620.0,120.0" stroke="#e63946" stroke-width="3.0" stroke-linecap="round" />
<path d="M140.0,120.0 L190.0,120.0" stroke="#e63946" stroke-width="3.0" stroke-linecap="round" />
<path d="M240.0,120.0 L290.0,120.0" stroke="#e63946" stroke-width="3.0" stroke-linecap="round" />
<path d="M410.0,120.0 L460.0,120.0" stroke="#e63946" stroke-width="3.0" stroke-linecap="round" />
<path d="M510.0,120.0 L560.0,120.0" stroke="#e63946" stroke-width="3.0" stroke-linecap="round" />
<path d="M190.0,120.0 L240.0,120.0" stroke="#e63946" stroke-width="3.0" stroke-linecap="round" />
<path d="M460.0,120.0 L510.0,120.0" stroke="#e63946" stroke-width="3.0" stroke-linecap="round" />
<rect x="75.0" y="115.0" width="10.0" height="25.0" rx="5.0" ry="5.0" fill="#ffffff" stroke="#333333" stroke-width="1.5" />
<rect x="135.0" y="115.0" width="10.0" height="25.0" rx="5.0" ry="5.0" fill="#ffffff" stroke="#333333" stroke-width="1.5" />
<rect x="285.0" y="115.0" width="10.0" height="25.0" rx="5.0" ry="5.0" fill="#ffffff" stroke="#333333" stroke-width="1.5" />
<rect x="345.0" y="115.0" width="10.0" height="25.0" rx="5.0" ry="5.0" fill="#ffffff" stroke="#333333" stroke-width="1.5" />
<rect x="405.0" y="115.0" width="10.0" height="25.0" rx="5.0" ry="5.0" fill="#ffffff" stroke="#333333" stroke-width="1.5" />
<rect x="555.0" y="115.0" width="10.0" height="25.0" rx="5.0" ry="5.0" fill="#ffffff" stroke="#333333" stroke-width="1.5" />
<rect x="615.0" y="115.0" width="10.0" height="25.0" rx="5.0" ry="5.0" fill="#ffffff" stroke="#333333" stroke-width="1.5" />
<text x="80.0" y="109.0" font-size="13.0" fill="#e0e0e0" font-family="'Helvetica Neue', Helvetica, Arial, sans-serif" font-weight="bold" text-anchor="middle" dominant-baseline="auto">Raw</text>
<text x="290.0" y="109.0" font-size="13.0" fill="#e0e0e0" font-family="'Helvetica Neue', Helvetica, Arial, sans-serif" font-weight="bold" text-anchor="middle" dominant-baseline="auto">Align</text>
<text x="560.0" y="109.0" font-size="13.0" fill="#e0e0e0" font-family="'Helvetica Neue', Helvetica, Arial, sans-serif" font-weight="bold" text-anchor="middle" dominant-baseline="auto">Quantify</text>
<text x="140.0" y="106.0" font-size="13.0" fill="#e0e0e0" font-family="'Helvetica Neue', Helvetica, Arial, sans-serif" font-weight="bold" text-anchor="middle" dominant-baseline="auto">QC</text>
<text x="350.0" y="106.0" font-size="13.0" fill="#e0e0e0" font-family="'Helvetica Neue', Helvetica, Arial, sans-serif" font-weight="bold" text-anchor="middle" dominant-baseline="auto">Sort</text>
<text x="625.1" y="106.0" font-size="13.0" fill="#e0e0e0" font-family="'Helvetica Neue', Helvetica, Arial, sans-serif" font-weight="bold" text-anchor="middle" dominant-baseline="auto">Report</text>
<text x="410.0" y="109.0" font-size="13.0" fill="#e0e0e0" font-family="'Helvetica Neue', Helvetica, Arial, sans-serif" font-weight="bold" text-anchor="middle" dominant-baseline="auto">Dedup</text>
<rect x="30.0" y="185.0" width="100.32" height="168.0" rx="6" ry="6" fill="rgba(0, 0, 0, 0.3)" />
<path d="M42.0,209.0 L66.0,209.0" stroke="#e63946" stroke-width="3.0" stroke-linecap="round" />
<text x="78.0" y="209.0" font-size="14.0" fill="#e0e0e0" font-family="'Helvetica Neue', Helvetica, Arial, sans-serif" dy="0.3em">Line 1</text>
<path d="M42.0,233.0 L66.0,233.0" stroke="#2db572" stroke-width="3.0" stroke-linecap="round" />
<text x="78.0" y="233.0" font-size="14.0" fill="#e0e0e0" font-family="'Helvetica Neue', Helvetica, Arial, sans-serif" dy="0.3em">Line 2</text>
<path d="M42.0,257.0 L66.0,257.0" stroke="#0570b0" stroke-width="3.0" stroke-linecap="round" />
<text x="78.0" y="257.0" font-size="14.0" fill="#e0e0e0" font-family="'Helvetica Neue', Helvetica, Arial, sans-serif" dy="0.3em">Line 3</text>
<path d="M42.0,281.0 L66.0,281.0" stroke="#f5c542" stroke-width="3.0" stroke-linecap="round" />
<text x="78.0" y="281.0" font-size="14.0" fill="#e0e0e0" font-family="'Helvetica Neue', Helvetica, Arial, sans-serif" dy="0.3em">Line 4</text>
<path d="M42.0,305.0 L66.0,305.0" stroke="#ff8c00" stroke-width="3.0" stroke-linecap="round" />
<text x="78.0" y="305.0" font-size="14.0" fill="#e0e0e0" font-family="'Helvetica Neue', Helvetica, Arial, sans-serif" dy="0.3em">Line 5</text>
<path d="M42.0,329.0 L66.0,329.0" stroke="#7b2d3b" stroke-width="3.0" stroke-linecap="round" />
<text x="78.0" y="329.0" font-size="14.0" fill="#e0e0e0" font-family="'Helvetica Neue', Helvetica, Arial, sans-serif" dy="0.3em">Line 6</text>
<text x="700.0" y="369.0" font-size="8" fill="rgba(150, 150, 150, 0.6)" font-family="'Helvetica Neue', Helvetica, Arial, sans-serif" text-anchor="end">created with nf-metro v0.5.3+dev</text>
</svg>