<?xml version="1.0" encoding="UTF-8"?>
<svg xmlns="http://www.w3.org/2000/svg" xmlns:xlink="http://www.w3.org/1999/xlink"
     width="721" height="321" viewBox="0 0 721 321">
<defs>
</defs>
<rect x="0" y="0" width="721" height="321" fill="#2b2b2b" />
<text x="60.0" y="30.0" font-size="24.0" fill="#ffffff" font-family="'Helvetica Neue', Helvetica, Arial, sans-serif" font-weight="bold" class="nf-metro-title">Multiple File Icons</text>
<rect x="30.0" y="85.0" width="337.0" height="70.0" rx="8" ry="8" fill="#373737" stroke="#595959" stroke-width="1.0" />
<circle cx="39.0" cy="72.0" r="9" fill="#333333" class="nf-metro-section-num-circle" />
<text x="39.0" y="72.0" font-size="9" fill="#ffffff" font-family="'Helvetica Neue', Helvetica, Arial, sans-serif" font-weight="bold" text-anchor="middle" dy="0.3em">1</text>
<text x="53.0" y="72.0" font-size="13.0" fill="#aaaaaa" font-family="'Helvetica Neue', Helvetica, Arial, sans-serif" dy="0.3em" class="nf-metro-section-label">Analysis</text>
<rect x="457.0" y="85.0" width="204.0" height="110.0" rx="8" ry="8" fill="#373737" stroke="#595959" stroke-width="1.0" />
<circle cx="466.0" cy="72.0" r="9" fill="#333333" class="nf-metro-section-num-circle" />
<text x="466.0" y="72.0" font-size="9" fill="#ffffff" font-family="'Helvetica Neue', Helvetica, Arial, sans-serif" font-weight="bold" text-anchor="middle" dy="0.3em">2</text>
<text x="480.0" y="72.0" font-size="13.0" fill="#aaaaaa" font-family="'Helvetica Neue', Helvetica, Arial, sans-serif" dy="0.3em" class="nf-metro-section-label">Reporting</text>
<path d="M120.0,123.0 L180.0,123.0" stroke="#2196F3" stroke-width="3.0" stroke-linecap="round" />
<path d="M543.0,123.0 L603.0,123.0" stroke="#2196F3" stroke-width="3.0" stroke-linecap="round" />
<path d="M180.0,123.0 L367.0,123.0" stroke="#2196F3" stroke-width="3.0" stroke-linecap="round" />
<path d="M457.0,123.0 L543.0,123.0" stroke="#2196F3" stroke-width="3.0" stroke-linecap="round" />
<path d="M300.0,123.0 L367.0,123.0" stroke="#2196F3" stroke-width="3.0" stroke-linecap="round" />
<path d="M457.0,123.0 L543.0,123.0" stroke="#2196F3" stroke-width="3.0" stroke-linecap="round" />
<path d="M367.0,123.0 L457.0,123.0" stroke="#2196F3" stroke-width="3.0" stroke-linecap="round" />
<path d="M367.0,123.0 L457.0,123.0" stroke="#2196F3" stroke-width="3.0" stroke-linecap="round" />
<path d="M120.0,120.0 L180.0,120.0" stroke="#4CAF50" stroke-width="3.0" stroke-linecap="round" />
<path d="M180.0,120.0 L240.0,120.0" stroke="#4CAF50" stroke-width="3.0" stroke-linecap="round" />
<path d="M240.0,120.0 L300.0,120.0" stroke="#4CAF50" stroke-width="3.0" stroke-linecap="round" />
<path d="M300.0,120.0 L367.0,120.0" stroke="#4CAF50" stroke-width="3.0" stroke-linecap="round" />
<path d="M457.0,120.0 L462.0,120.0 Q472.0,120.0,478.0,128.0 L496.0,152.0 Q502.0,160.0,512.0,160.0 L543.0,160.0" stroke="#4CAF50" stroke-width="3.0" fill="none" stroke-linecap="round" stroke-linejoin="round" />
<path d="M367.0,120.0 L457.0,120.0" stroke="#4CAF50" stroke-width="3.0" stroke-linecap="round" />
<rect x="115.0" y="115.0" width="10.0" height="13.0" fill="#ffffff" stroke="#333333" stroke-width="1.5" />
<path d="M83.0,105.5 L101.0,105.5 L109.0,113.5 L109.0,135.5 Q109.0,137.5,107.0,137.5 L83.0,137.5 Q81.0,137.5,81.0,135.5 L81.0,107.5 Q81.0,105.5,83.0,105.5 Z" fill="#ffffff" stroke="#333333" stroke-width="1.5" stroke-linejoin="round" />
<path d="M101.0,105.5 L101.0,113.5 L109.0,113.5 Z" fill="#333333" opacity="0.15" stroke="none" />
<path d="M101.0,105.5 L101.0,113.5 L109.0,113.5" fill="none" stroke="#333333" stroke-width="0.8999999999999999" />
<text x="95.0" y="122.7" font-size="9.0" fill="#000000" font-family="'Helvetica Neue', Helvetica, Arial, sans-serif" font-weight="bold" text-anchor="middle" dy="0.3em">FASTQ</text>
<path d="M51.0,105.5 L69.0,105.5 L77.0,113.5 L77.0,135.5 Q77.0,137.5,75.0,137.5 L51.0,137.5 Q49.0,137.5,49.0,135.5 L49.0,107.5 Q49.0,105.5,51.0,105.5 Z" fill="#ffffff" stroke="#333333" stroke-width="1.5" stroke-linejoin="round" />
<path d="M69.0,105.5 L69.0,113.5 L77.0,113.5 Z" fill="#333333" opacity="0.15" stroke="none" />
<path d="M69.0,105.5 L69.0,113.5 L77.0,113.5" fill="none" stroke="#333333" stroke-width="0.8999999999999999" />
<text x="63.0" y="122.7" font-size="9.0" fill="#000000" font-family="'Helvetica Neue', Helvetica, Arial, sans-serif" font-weight="bold" text-anchor="middle" dy="0.3em">BAM</text>
<rect x="175.0" y="115.0" width="10.0" height="13.0" rx="5.0" ry="5.0" fill="#ffffff" stroke="#333333" stroke-width="1.5" />
<rect x="235.0" y="115.0" width="10.0" height="10.0" rx="5.0" ry="5.0" fill="#ffffff" stroke="#333333" stroke-width="1.5" />
<rect x="295.0" y="115.0" width="10.0" height="13.0" rx="5.0" ry="5.0" fill="#ffffff" stroke="#333333" stroke-width="1.5" />
<rect x="538.0" y="118.0" width="10.0" height="10.0" rx="5.0" ry="5.0" fill="#ffffff" stroke="#333333" stroke-width="1.5" />
<rect x="598.0" y="118.0" width="10.0" height="10.0" fill="#ffffff" stroke="#333333" stroke-width="1.5" />
<path d="M616.0,107.0 L634.0,107.0 L642.0,115.0 L642.0,137.0 Q642.0,139.0,640.0,139.0 L616.0,139.0 Q614.0,139.0,614.0,137.0 L614.0,109.0 Q614.0,107.0,616.0,107.0 Z" fill="#ffffff" stroke="#333333" stroke-width="1.5" stroke-linejoin="round" />
<path d="M634.0,107.0 L634.0,115.0 L642.0,115.0 Z" fill="#333333" opacity="0.15" stroke="none" />
<path d="M634.0,107.0 L634.0,115.0 L642.0,115.0" fill="none" stroke="#333333" stroke-width="0.8999999999999999" />
<text x="628.0" y="124.2" font-size="9.0" fill="#000000" font-family="'Helvetica Neue', Helvetica, Arial, sans-serif" font-weight="bold" text-anchor="middle" dy="0.3em">HTML</text>
<rect x="538.0" y="155.0" width="10.0" height="10.0" fill="#ffffff" stroke="#333333" stroke-width="1.5" />
<path d="M556.0,144.0 L574.0,144.0 L582.0,152.0 L582.0,174.0 Q582.0,176.0,580.0,176.0 L556.0,176.0 Q554.0,176.0,554.0,174.0 L554.0,146.0 Q554.0,144.0,556.0,144.0 Z" fill="#ffffff" stroke="#333333" stroke-width="1.5" stroke-linejoin="round" />
<path d="M574.0,144.0 L574.0,152.0 L582.0,152.0 Z" fill="#333333" opacity="0.15" stroke="none" />
<path d="M574.0,144.0 L574.0,152.0 L582.0,152.0" fill="none" stroke="#333333" stroke-width="0.8999999999999999" />
<text x="568.0" y="161.2" font-size="9.0" fill="#000000" font-family="'Helvetica Neue', Helvetica, Arial, sans-serif" font-weight="bold" text-anchor="middle" dy="0.3em">TSV</text>
<path d="M588.0,144.0 L606.0,144.0 L614.0,152.0 L614.0,174.0 Q614.0,176.0,612.0,176.0 L588.0,176.0 Q586.0,176.0,586.0,174.0 L586.0,146.0 Q586.0,144.0,588.0,144.0 Z" fill="#ffffff" stroke="#333333" stroke-width="1.5" stroke-linejoin="round" />
<path d="M606.0,144.0 L606.0,152.0 L614.0,152.0 Z" fill="#333333" opacity="0.15" stroke="none" />
<path d="M606.0,144.0 L606.0,152.0 L614.0,152.0" fill="none" stroke="#333333" stroke-width="0.8999999999999999" />
<text x="600.0" y="161.2" font-size="9.0" fill="#000000" font-family="'Helvetica Neue', Helvetica, Arial, sans-serif" font-weight="bold" text-anchor="middle" dy="0.3em">H5AD</text>
<text x="543.0" y="112.0" font-size="13.0" fill="#e0e0e0" font-family="'Helvetica Neue', Helvetica, Arial, sans-serif" font-weight="bold" text-anchor="middle" dominant-baseline="auto">MultiQC</text>
<text x="180.0" y="109.0" font-size="13.0" fill="#e0e0e0" font-family="'Helvetica Neue', Helvetica, Arial, sans-serif" font-weight="bold" text-anchor="middle" dominant-baseline="auto">Trimming</text>
<text x="240.0" y="128.0" font-size="13.0" fill="#e0e0e0" font-family="'Helvetica Neue', Helvetica, Arial, sans-serif" font-weight="bold" text-anchor="middle" dominant-baseline="hanging">Alignment</text>
<text x="300.0" y="109.0" font-size="13.0" fill="#e0e0e0" font-family="'Helvetica Neue', Helvetica, Arial, sans-serif" font-weight="bold" text-anchor="middle" dominant-baseline="auto">Quantification</text>
<rect x="30.0" y="225.0" width="160.8" height="72.0" rx="6" ry="6" fill="rgba(0, 0, 0, 0.3)" />
<path d="M42.0,249.0 L66.0,249.0" stroke="#4CAF50" stroke-width="3.0" stroke-linecap="round" />
<text x="78.0" y="249.0" font-size="14.0" fill="#e0e0e0" font-family="'Helvetica Neue', Helvetica, Arial, sans-serif" dy="0.3em">Main</text>
<path d="M42.0,273.0 L66.0,273.0" stroke="#2196F3" stroke-width="3.0" stroke-linecap="round" />
<text x="78.0" y="273.0" font-size="14.0" fill="#e0e0e0" font-family="'Helvetica Neue', Helvetica, Arial, sans-serif" dy="0.3em">Quality Control</text>
<text x="691.0" y="313.0" font-size="8" fill="rgba(150, 150, 150, 0.6)" font-family="'Helvetica Neue', Helvetica, Arial, sans-serif" text-anchor="end">created with nf-metro v0.5.0+dev</text>
</svg>