<?xml version="1.0" encoding="UTF-8"?>
<svg xmlns="http://www.w3.org/2000/svg" xmlns:xlink="http://www.w3.org/1999/xlink"
     width="1447" height="366" viewBox="0 0 1447 366">
<defs>
</defs>
<rect x="0" y="0" width="1447" height="366" fill="#2b2b2b" />
<text x="60.0" y="30.0" font-size="24.0" fill="#ffffff" font-family="'Helvetica Neue', Helvetica, Arial, sans-serif" font-weight="bold" class="nf-metro-title">Variant Calling Pipeline</text>
<rect x="22.0" y="85.0" width="240.0" height="110.0" rx="8" ry="8" fill="#373737" stroke="#595959" stroke-width="1.0" />
<circle cx="31.0" cy="72.0" r="9" fill="#333333" class="nf-metro-section-num-circle" />
<text x="31.0" y="72.0" font-size="9" fill="#ffffff" font-family="'Helvetica Neue', Helvetica, Arial, sans-serif" font-weight="bold" text-anchor="middle" dy="0.3em">1</text>
<text x="45.0" y="72.0" font-size="13.0" fill="#aaaaaa" font-family="'Helvetica Neue', Helvetica, Arial, sans-serif" dy="0.3em" class="nf-metro-section-label">Pre-processing</text>
<rect x="312.0" y="85.0" width="401.0" height="110.0" rx="8" ry="8" fill="#373737" stroke="#595959" stroke-width="1.0" />
<circle cx="321.0" cy="72.0" r="9" fill="#333333" class="nf-metro-section-num-circle" />
<text x="321.0" y="72.0" font-size="9" fill="#ffffff" font-family="'Helvetica Neue', Helvetica, Arial, sans-serif" font-weight="bold" text-anchor="middle" dy="0.3em">2</text>
<text x="335.0" y="72.0" font-size="13.0" fill="#aaaaaa" font-family="'Helvetica Neue', Helvetica, Arial, sans-serif" dy="0.3em" class="nf-metro-section-label">Alignment</text>
<rect x="771.0" y="85.0" width="398.0" height="122.23303379776745" rx="8" ry="8" fill="#373737" stroke="#595959" stroke-width="1.0" />
<circle cx="780.0" cy="72.0" r="9" fill="#333333" class="nf-metro-section-num-circle" />
<text x="780.0" y="72.0" font-size="9" fill="#ffffff" font-family="'Helvetica Neue', Helvetica, Arial, sans-serif" font-weight="bold" text-anchor="middle" dy="0.3em">3</text>
<text x="794.0" y="72.0" font-size="13.0" fill="#aaaaaa" font-family="'Helvetica Neue', Helvetica, Arial, sans-serif" dy="0.3em" class="nf-metro-section-label">Variant Calling</text>
<rect x="1219.0" y="85.0" width="168.0" height="70.0" rx="8" ry="8" fill="#373737" stroke="#595959" stroke-width="1.0" />
<circle cx="1228.0" cy="72.0" r="9" fill="#333333" class="nf-metro-section-num-circle" />
<text x="1228.0" y="72.0" font-size="9" fill="#ffffff" font-family="'Helvetica Neue', Helvetica, Arial, sans-serif" font-weight="bold" text-anchor="middle" dy="0.3em">4</text>
<text x="1242.0" y="72.0" font-size="13.0" fill="#aaaaaa" font-family="'Helvetica Neue', Helvetica, Arial, sans-serif" dy="0.3em" class="nf-metro-section-label">Reporting</text>
<path d="M865.0,172.23303379776746 L885.0,172.23303379776746 Q895.0,172.23303379776746,902.5423741105224,165.6670157672621 L917.4576258894776,152.6825349293891 Q925.0,146.11651689888373,935.0,146.11651689888373 L988.0,146.11651689888373" stroke="#2db572" stroke-width="3.0" fill="none" stroke-linecap="round" stroke-linejoin="round" />
<path d="M176.0,163.0 L262.0,163.0" stroke="#0570b0" stroke-width="3.0" stroke-linecap="round" />
<path d="M262.0,163.0 L272.0,163.0" stroke="#0570b0" stroke-width="3.0" stroke-linecap="round" />
<path d="M272.0,163.0 L272.0,163.0 Q282.0,163.0,282.0,173.0 L282.0,230.23303379776746 Q282.0,243.23303379776746,295.0,243.23303379776746 L1196.0,243.23303379776746 Q1209.0,243.23303379776746,1209.0,230.23303379776746 L1209.0,133.0 Q1209.0,123.0,1219.0,123.0 L1219.0,123.0" stroke="#0570b0" stroke-width="3.0" fill="none" stroke-linecap="round" stroke-linejoin="round" />
<path d="M272.0,163.0 L272.0,163.0 Q282.0,163.0,282.0,173.0 L282.0,230.23303379776746 Q282.0,243.23303379776746,295.0,243.23303379776746 L1196.0,243.23303379776746 Q1209.0,243.23303379776746,1209.0,230.23303379776746 L1209.0,133.0 Q1209.0,123.0,1219.0,123.0 L1219.0,123.0" stroke="#0570b0" stroke-width="3.0" fill="none" stroke-linecap="round" stroke-linejoin="round" />
<path d="M312.0,160.0 L454.5,160.0 Q464.5,160.0,470.5,152.0 L488.5,128.0 Q494.5,120.0,504.5,120.0 L526.0,120.0" stroke="#2db572" stroke-width="3.0" fill="none" stroke-linecap="round" stroke-linejoin="round" />
<path d="M262.0,160.0 L272.0,160.0" stroke="#2db572" stroke-width="3.0" stroke-linecap="round" />
<path d="M272.0,160.0 L312.0,160.0" stroke="#2db572" stroke-width="3.0" stroke-linecap="round" />
<path d="M988.0,149.11651689888373 L1041.0,149.11651689888373 Q1051.0,149.11651689888373,1058.5423741105224,142.55049886837836 L1073.4576258894776,129.56601803050538 Q1081.0,123.0,1091.0,123.0 L1169.0,123.0" stroke="#0570b0" stroke-width="3.0" fill="none" stroke-linecap="round" stroke-linejoin="round" />
<path d="M988.0,146.11651689888373 L1041.0,146.11651689888373 Q1051.0,146.11651689888373,1058.5423741105224,152.6825349293891 L1073.4576258894776,165.6670157672621 Q1081.0,172.23303379776746,1091.0,172.23303379776746 L1111.0,172.23303379776746" stroke="#2db572" stroke-width="3.0" fill="none" stroke-linecap="round" stroke-linejoin="round" />
<path d="M80.0,123.0 L176.0,123.0" stroke="#0570b0" stroke-width="3.0" stroke-linecap="round" />
<path d="M80.0,123.0 L80.0,123.0 Q90.0,123.0,96.0,131.0 L114.0,155.0 Q120.0,163.0,130.0,163.0 L176.0,163.0" stroke="#0570b0" stroke-width="3.0" fill="none" stroke-linecap="round" stroke-linejoin="round" />
<path d="M1269.0,123.0 L1329.0,123.0" stroke="#0570b0" stroke-width="3.0" stroke-linecap="round" />
<path d="M1219.0,123.0 L1269.0,123.0" stroke="#0570b0" stroke-width="3.0" stroke-linecap="round" />
<path d="M1219.0,123.0 L1269.0,123.0" stroke="#0570b0" stroke-width="3.0" stroke-linecap="round" />
<path d="M176.0,123.0 L207.0,123.0 Q217.0,123.0,223.0,131.0 L241.0,155.0 Q247.0,163.0,257.0,163.0 L262.0,163.0" stroke="#0570b0" stroke-width="3.0" fill="none" stroke-linecap="round" stroke-linejoin="round" />
<path d="M1219.0,123.0 L1269.0,123.0" stroke="#0570b0" stroke-width="3.0" stroke-linecap="round" />
<path d="M1169.0,123.0 L1219.0,123.0" stroke="#0570b0" stroke-width="3.0" stroke-linecap="round" />
<path d="M80.0,120.0 L176.0,120.0" stroke="#2db572" stroke-width="3.0" stroke-linecap="round" />
<path d="M370.0,120.0 L430.0,120.0" stroke="#2db572" stroke-width="3.0" stroke-linecap="round" />
<path d="M430.0,120.0 L526.0,120.0" stroke="#2db572" stroke-width="3.0" stroke-linecap="round" />
<path d="M526.0,120.0 L586.0,120.0" stroke="#2db572" stroke-width="3.0" stroke-linecap="round" />
<path d="M586.0,120.0 L646.0,120.0" stroke="#2db572" stroke-width="3.0" stroke-linecap="round" />
<path d="M865.0,120.0 L885.0,120.0 Q895.0,120.0,902.5423741105224,126.56601803050538 L917.4576258894776,139.55049886837836 Q925.0,146.11651689888373,935.0,146.11651689888373 L988.0,146.11651689888373" stroke="#2db572" stroke-width="3.0" fill="none" stroke-linecap="round" stroke-linejoin="round" />
<path d="M176.0,120.0 L207.0,120.0 Q217.0,120.0,223.0,128.0 L241.0,152.0 Q247.0,160.0,257.0,160.0 L262.0,160.0" stroke="#2db572" stroke-width="3.0" fill="none" stroke-linecap="round" stroke-linejoin="round" />
<path d="M586.0,120.0 L713.0,120.0" stroke="#2db572" stroke-width="3.0" stroke-linecap="round" />
<path d="M771.0,120.0 L865.0,120.0" stroke="#2db572" stroke-width="3.0" stroke-linecap="round" />
<path d="M586.0,120.0 L713.0,120.0" stroke="#2db572" stroke-width="3.0" stroke-linecap="round" />
<path d="M771.0,120.0 L776.0,120.0 Q786.0,120.0,790.9804693249598,128.67150075264567 L811.0195306750402,163.5615330451218 Q816.0,172.23303379776746,826.0,172.23303379776746 L865.0,172.23303379776746" stroke="#2db572" stroke-width="3.0" fill="none" stroke-linecap="round" stroke-linejoin="round" />
<path d="M646.0,120.0 L713.0,120.0" stroke="#2db572" stroke-width="3.0" stroke-linecap="round" />
<path d="M771.0,120.0 L865.0,120.0" stroke="#2db572" stroke-width="3.0" stroke-linecap="round" />
<path d="M646.0,120.0 L713.0,120.0" stroke="#2db572" stroke-width="3.0" stroke-linecap="round" />
<path d="M771.0,120.0 L776.0,120.0 Q786.0,120.0,790.9804693249598,128.67150075264567 L811.0195306750402,163.5615330451218 Q816.0,172.23303379776746,826.0,172.23303379776746 L865.0,172.23303379776746" stroke="#2db572" stroke-width="3.0" fill="none" stroke-linecap="round" stroke-linejoin="round" />
<path d="M713.0,120.0 L771.0,120.0" stroke="#2db572" stroke-width="3.0" stroke-linecap="round" />
<path d="M713.0,120.0 L771.0,120.0" stroke="#2db572" stroke-width="3.0" stroke-linecap="round" />
<path d="M713.0,120.0 L771.0,120.0" stroke="#2db572" stroke-width="3.0" stroke-linecap="round" />
<path d="M713.0,120.0 L771.0,120.0" stroke="#2db572" stroke-width="3.0" stroke-linecap="round" />
<rect x="75.0" y="115.0" width="10.0" height="13.0" fill="#ffffff" stroke="#333333" stroke-width="1.5" />
<path d="M43.0,105.5 L61.0,105.5 L69.0,113.5 L69.0,135.5 Q69.0,137.5,67.0,137.5 L43.0,137.5 Q41.0,137.5,41.0,135.5 L41.0,107.5 Q41.0,105.5,43.0,105.5 Z" fill="#ffffff" stroke="#333333" stroke-width="1.5" stroke-linejoin="round" />
<path d="M61.0,105.5 L61.0,113.5 L69.0,113.5 Z" fill="#333333" opacity="0.15" stroke="none" />
<path d="M61.0,105.5 L61.0,113.5 L69.0,113.5" fill="none" stroke="#333333" stroke-width="0.8999999999999999" />
<text x="55.0" y="122.7" font-size="9.0" fill="#000000" font-family="'Helvetica Neue', Helvetica, Arial, sans-serif" font-weight="bold" text-anchor="middle" dy="0.3em">FASTQ</text>
<rect x="171.0" y="158.0" width="10.0" height="10.0" rx="5.0" ry="5.0" fill="#ffffff" stroke="#333333" stroke-width="1.5" />
<rect x="171.0" y="115.0" width="10.0" height="13.0" rx="5.0" ry="5.0" fill="#ffffff" stroke="#333333" stroke-width="1.5" />
<rect x="365.0" y="115.0" width="10.0" height="10.0" fill="#ffffff" stroke="#333333" stroke-width="1.5" />
<path d="M333.0,104.0 L351.0,104.0 L359.0,112.0 L359.0,134.0 Q359.0,136.0,357.0,136.0 L333.0,136.0 Q331.0,136.0,331.0,134.0 L331.0,106.0 Q331.0,104.0,333.0,104.0 Z" fill="#ffffff" stroke="#333333" stroke-width="1.5" stroke-linejoin="round" />
<path d="M351.0,104.0 L351.0,112.0 L359.0,112.0 Z" fill="#333333" opacity="0.15" stroke="none" />
<path d="M351.0,104.0 L351.0,112.0 L359.0,112.0" fill="none" stroke="#333333" stroke-width="0.8999999999999999" />
<text x="345.0" y="121.2" font-size="9.0" fill="#000000" font-family="'Helvetica Neue', Helvetica, Arial, sans-serif" font-weight="bold" text-anchor="middle" dy="0.3em">FASTA</text>
<rect x="425.0" y="115.0" width="10.0" height="10.0" rx="5.0" ry="5.0" fill="#ffffff" stroke="#333333" stroke-width="1.5" />
<rect x="521.0" y="115.0" width="10.0" height="10.0" rx="5.0" ry="5.0" fill="#ffffff" stroke="#333333" stroke-width="1.5" />
<rect x="581.0" y="115.0" width="10.0" height="10.0" rx="5.0" ry="5.0" fill="#ffffff" stroke="#333333" stroke-width="1.5" />
<rect x="641.0" y="115.0" width="10.0" height="10.0" rx="5.0" ry="5.0" fill="#ffffff" stroke="#333333" stroke-width="1.5" />
<rect x="860.0" y="115.0" width="10.0" height="10.0" rx="5.0" ry="5.0" fill="#ffffff" stroke="#333333" stroke-width="1.5" />
<rect x="860.0" y="167.23303379776746" width="10.0" height="10.0" rx="5.0" ry="5.0" fill="#ffffff" stroke="#333333" stroke-width="1.5" />
<rect x="983.0" y="141.11651689888373" width="10.0" height="13.0" rx="5.0" ry="5.0" fill="#ffffff" stroke="#333333" stroke-width="1.5" />
<rect x="1106.0" y="167.23303379776746" width="10.0" height="10.0" fill="#ffffff" stroke="#333333" stroke-width="1.5" />
<path d="M1124.0,156.23303379776746 L1142.0,156.23303379776746 L1150.0,164.23303379776746 L1150.0,186.23303379776746 Q1150.0,188.23303379776746,1148.0,188.23303379776746 L1124.0,188.23303379776746 Q1122.0,188.23303379776746,1122.0,186.23303379776746 L1122.0,158.23303379776746 Q1122.0,156.23303379776746,1124.0,156.23303379776746 Z" fill="#ffffff" stroke="#333333" stroke-width="1.5" stroke-linejoin="round" />
<path d="M1142.0,156.23303379776746 L1142.0,164.23303379776746 L1150.0,164.23303379776746 Z" fill="#333333" opacity="0.15" stroke="none" />
<path d="M1142.0,156.23303379776746 L1142.0,164.23303379776746 L1150.0,164.23303379776746" fill="none" stroke="#333333" stroke-width="0.8999999999999999" />
<text x="1136.0" y="173.43303379776745" font-size="9.0" fill="#000000" font-family="'Helvetica Neue', Helvetica, Arial, sans-serif" font-weight="bold" text-anchor="middle" dy="0.3em">VCF</text>
<rect x="1264.0" y="118.0" width="10.0" height="10.0" rx="5.0" ry="5.0" fill="#ffffff" stroke="#333333" stroke-width="1.5" />
<rect x="1324.0" y="118.0" width="10.0" height="10.0" fill="#ffffff" stroke="#333333" stroke-width="1.5" />
<path d="M1342.0,107.0 L1360.0,107.0 L1368.0,115.0 L1368.0,137.0 Q1368.0,139.0,1366.0,139.0 L1342.0,139.0 Q1340.0,139.0,1340.0,137.0 L1340.0,109.0 Q1340.0,107.0,1342.0,107.0 Z" fill="#ffffff" stroke="#333333" stroke-width="1.5" stroke-linejoin="round" />
<path d="M1360.0,107.0 L1360.0,115.0 L1368.0,115.0 Z" fill="#333333" opacity="0.15" stroke="none" />
<path d="M1360.0,107.0 L1360.0,115.0 L1368.0,115.0" fill="none" stroke="#333333" stroke-width="0.8999999999999999" />
<text x="1354.0" y="124.2" font-size="9.0" fill="#000000" font-family="'Helvetica Neue', Helvetica, Arial, sans-serif" font-weight="bold" text-anchor="middle" dy="0.3em">HTML</text>
<text x="865.0" y="109.0" font-size="13.0" fill="#e0e0e0" font-family="'Helvetica Neue', Helvetica, Arial, sans-serif" font-weight="bold" text-anchor="middle" dominant-baseline="auto">GATK HaplotypeCaller</text>
<text x="865.0" y="180.23303379776746" font-size="13.0" fill="#e0e0e0" font-family="'Helvetica Neue', Helvetica, Arial, sans-serif" font-weight="bold" text-anchor="middle" dominant-baseline="hanging">DeepVariant</text>
<text x="1269.0" y="131.0" font-size="13.0" fill="#e0e0e0" font-family="'Helvetica Neue', Helvetica, Arial, sans-serif" font-weight="bold" text-anchor="middle" dominant-baseline="hanging">MultiQC</text>
<text x="176.0" y="109.0" font-size="13.0" fill="#e0e0e0" font-family="'Helvetica Neue', Helvetica, Arial, sans-serif" font-weight="bold" text-anchor="middle" dominant-baseline="auto">FastP</text>
<text x="430.0" y="109.0" font-size="13.0" fill="#e0e0e0" font-family="'Helvetica Neue', Helvetica, Arial, sans-serif" font-weight="bold" text-anchor="middle" dominant-baseline="auto">BWA Index</text>
<text x="988.0" y="135.11651689888373" font-size="13.0" fill="#e0e0e0" font-family="'Helvetica Neue', Helvetica, Arial, sans-serif" font-weight="bold" text-anchor="middle" dominant-baseline="auto">BCFtools Stats</text>
<text x="176.0" y="171.0" font-size="13.0" fill="#e0e0e0" font-family="'Helvetica Neue', Helvetica, Arial, sans-serif" font-weight="bold" text-anchor="middle" dominant-baseline="hanging">FastQC</text>
<text x="526.0" y="128.0" font-size="13.0" fill="#e0e0e0" font-family="'Helvetica Neue', Helvetica, Arial, sans-serif" font-weight="bold" text-anchor="middle" dominant-baseline="hanging">BWA-MEM</text>
<text x="586.0" y="109.0" font-size="13.0" fill="#e0e0e0" font-family="'Helvetica Neue', Helvetica, Arial, sans-serif" font-weight="bold" text-anchor="middle" dominant-baseline="auto">SAMtools Sort</text>
<text x="646.0" y="128.0" font-size="13.0" fill="#e0e0e0" font-family="'Helvetica Neue', Helvetica, Arial, sans-serif" font-weight="bold" text-anchor="middle" dominant-baseline="hanging">SAMtools Index</text>
<rect x="22.0" y="270.23303379776746" width="140.64" height="72.0" rx="6" ry="6" fill="rgba(0, 0, 0, 0.3)" />
<path d="M34.0,294.23303379776746 L58.0,294.23303379776746" stroke="#2db572" stroke-width="3.0" stroke-linecap="round" />
<text x="70.0" y="294.23303379776746" font-size="14.0" fill="#e0e0e0" font-family="'Helvetica Neue', Helvetica, Arial, sans-serif" dy="0.3em">Main</text>
<path d="M34.0,318.23303379776746 L58.0,318.23303379776746" stroke="#0570b0" stroke-width="3.0" stroke-linecap="round" />
<text x="70.0" y="318.23303379776746" font-size="14.0" fill="#e0e0e0" font-family="'Helvetica Neue', Helvetica, Arial, sans-serif" dy="0.3em">QC Reporting</text>
<text x="1417.0" y="358.0" font-size="8" fill="rgba(150, 150, 150, 0.6)" font-family="'Helvetica Neue', Helvetica, Arial, sans-serif" text-anchor="end">created with nf-metro v0.5.0+dev</text>
</svg>