<?xml version="1.0" encoding="UTF-8"?>
<svg xmlns="http://www.w3.org/2000/svg" xmlns:xlink="http://www.w3.org/1999/xlink"
     width="802" height="377" viewBox="0 0 802 377">
<defs>
</defs>
<rect x="0" y="0" width="802" height="377" fill="#2b2b2b" />
<text x="60.0" y="30.0" font-size="24.0" fill="#ffffff" font-family="'Helvetica Neue', Helvetica, Arial, sans-serif" font-weight="bold">Multi-Line Bundle</text>
<rect x="30.0" y="85.0" width="196.0" height="70.0" rx="8" ry="8" fill="rgba(255, 255, 255, 0.06)" stroke="rgba(255, 255, 255, 0.2)" stroke-width="1.0" />
<circle cx="39.0" cy="72.0" r="9" fill="#333333" />
<text x="39.0" y="72.0" font-size="9" fill="#ffffff" font-family="'Helvetica Neue', Helvetica, Arial, sans-serif" font-weight="bold" text-anchor="middle" dominant-baseline="central">1</text>
<text x="53.0" y="72.0" font-size="13.0" fill="#aaaaaa" font-family="'Helvetica Neue', Helvetica, Arial, sans-serif" dominant-baseline="central">Input</text>
<rect x="276.0" y="85.0" width="256.0" height="70.0" rx="8" ry="8" fill="rgba(255, 255, 255, 0.06)" stroke="rgba(255, 255, 255, 0.2)" stroke-width="1.0" />
<circle cx="285.0" cy="72.0" r="9" fill="#333333" />
<text x="285.0" y="72.0" font-size="9" fill="#ffffff" font-family="'Helvetica Neue', Helvetica, Arial, sans-serif" font-weight="bold" text-anchor="middle" dominant-baseline="central">2</text>
<text x="299.0" y="72.0" font-size="13.0" fill="#aaaaaa" font-family="'Helvetica Neue', Helvetica, Arial, sans-serif" dominant-baseline="central">Processing</text>
<rect x="582.0" y="85.0" width="160.0" height="88.0" rx="8" ry="8" fill="rgba(255, 255, 255, 0.06)" stroke="rgba(255, 255, 255, 0.2)" stroke-width="1.0" />
<circle cx="591.0" cy="72.0" r="9" fill="#333333" />
<text x="591.0" y="72.0" font-size="9" fill="#ffffff" font-family="'Helvetica Neue', Helvetica, Arial, sans-serif" font-weight="bold" text-anchor="middle" dominant-baseline="central">3</text>
<text x="605.0" y="72.0" font-size="13.0" fill="#aaaaaa" font-family="'Helvetica Neue', Helvetica, Arial, sans-serif" dominant-baseline="central">Output</text>
<path d="M80.0,135.0 L140.0,135.0" stroke="#7b2d3b" stroke-width="3.0" stroke-linecap="round" />
<path d="M326.0,135.0 L386.0,135.0" stroke="#7b2d3b" stroke-width="3.0" stroke-linecap="round" />
<path d="M386.0,135.0 L446.0,135.0" stroke="#7b2d3b" stroke-width="3.0" stroke-linecap="round" />
<path d="M632.0,135.0 L692.0,135.0" stroke="#7b2d3b" stroke-width="3.0" stroke-linecap="round" />
<path d="M140.0,135.0 L226.0,135.0" stroke="#7b2d3b" stroke-width="3.0" stroke-linecap="round" />
<path d="M276.0,135.0 L326.0,135.0" stroke="#7b2d3b" stroke-width="3.0" stroke-linecap="round" />
<path d="M446.0,135.0 L532.0,135.0" stroke="#7b2d3b" stroke-width="3.0" stroke-linecap="round" />
<path d="M582.0,135.0 L632.0,135.0" stroke="#7b2d3b" stroke-width="3.0" stroke-linecap="round" />
<path d="M226.0,135.0 L276.0,135.0" stroke="#7b2d3b" stroke-width="3.0" stroke-linecap="round" />
<path d="M532.0,135.0 L582.0,135.0" stroke="#7b2d3b" stroke-width="3.0" stroke-linecap="round" />
<path d="M80.0,132.0 L140.0,132.0" stroke="#ff8c00" stroke-width="3.0" stroke-linecap="round" />
<path d="M326.0,132.0 L386.0,132.0" stroke="#ff8c00" stroke-width="3.0" stroke-linecap="round" />
<path d="M386.0,132.0 L446.0,132.0" stroke="#ff8c00" stroke-width="3.0" stroke-linecap="round" />
<path d="M632.0,132.0 L692.0,132.0" stroke="#ff8c00" stroke-width="3.0" stroke-linecap="round" />
<path d="M140.0,132.0 L226.0,132.0" stroke="#ff8c00" stroke-width="3.0" stroke-linecap="round" />
<path d="M276.0,132.0 L326.0,132.0" stroke="#ff8c00" stroke-width="3.0" stroke-linecap="round" />
<path d="M446.0,132.0 L532.0,132.0" stroke="#ff8c00" stroke-width="3.0" stroke-linecap="round" />
<path d="M582.0,132.0 L632.0,132.0" stroke="#ff8c00" stroke-width="3.0" stroke-linecap="round" />
<path d="M226.0,132.0 L276.0,132.0" stroke="#ff8c00" stroke-width="3.0" stroke-linecap="round" />
<path d="M532.0,132.0 L582.0,132.0" stroke="#ff8c00" stroke-width="3.0" stroke-linecap="round" />
<path d="M80.0,129.0 L140.0,129.0" stroke="#f5c542" stroke-width="3.0" stroke-linecap="round" />
<path d="M326.0,129.0 L386.0,129.0" stroke="#f5c542" stroke-width="3.0" stroke-linecap="round" />
<path d="M386.0,129.0 L446.0,129.0" stroke="#f5c542" stroke-width="3.0" stroke-linecap="round" />
<path d="M632.0,129.0 L692.0,129.0" stroke="#f5c542" stroke-width="3.0" stroke-linecap="round" />
<path d="M140.0,129.0 L226.0,129.0" stroke="#f5c542" stroke-width="3.0" stroke-linecap="round" />
<path d="M276.0,129.0 L326.0,129.0" stroke="#f5c542" stroke-width="3.0" stroke-linecap="round" />
<path d="M446.0,129.0 L532.0,129.0" stroke="#f5c542" stroke-width="3.0" stroke-linecap="round" />
<path d="M582.0,129.0 L632.0,129.0" stroke="#f5c542" stroke-width="3.0" stroke-linecap="round" />
<path d="M226.0,129.0 L276.0,129.0" stroke="#f5c542" stroke-width="3.0" stroke-linecap="round" />
<path d="M532.0,129.0 L582.0,129.0" stroke="#f5c542" stroke-width="3.0" stroke-linecap="round" />
<path d="M80.0,126.0 L140.0,126.0" stroke="#0570b0" stroke-width="3.0" stroke-linecap="round" />
<path d="M326.0,126.0 L386.0,126.0" stroke="#0570b0" stroke-width="3.0" stroke-linecap="round" />
<path d="M386.0,126.0 L446.0,126.0" stroke="#0570b0" stroke-width="3.0" stroke-linecap="round" />
<path d="M632.0,126.0 L692.0,126.0" stroke="#0570b0" stroke-width="3.0" stroke-linecap="round" />
<path d="M140.0,126.0 L226.0,126.0" stroke="#0570b0" stroke-width="3.0" stroke-linecap="round" />
<path d="M276.0,126.0 L326.0,126.0" stroke="#0570b0" stroke-width="3.0" stroke-linecap="round" />
<path d="M446.0,126.0 L532.0,126.0" stroke="#0570b0" stroke-width="3.0" stroke-linecap="round" />
<path d="M582.0,126.0 L632.0,126.0" stroke="#0570b0" stroke-width="3.0" stroke-linecap="round" />
<path d="M226.0,126.0 L276.0,126.0" stroke="#0570b0" stroke-width="3.0" stroke-linecap="round" />
<path d="M532.0,126.0 L582.0,126.0" stroke="#0570b0" stroke-width="3.0" stroke-linecap="round" />
<path d="M80.0,123.0 L140.0,123.0" stroke="#2db572" stroke-width="3.0" stroke-linecap="round" />
<path d="M326.0,123.0 L386.0,123.0" stroke="#2db572" stroke-width="3.0" stroke-linecap="round" />
<path d="M386.0,123.0 L446.0,123.0" stroke="#2db572" stroke-width="3.0" stroke-linecap="round" />
<path d="M632.0,123.0 L692.0,123.0" stroke="#2db572" stroke-width="3.0" stroke-linecap="round" />
<path d="M140.0,123.0 L226.0,123.0" stroke="#2db572" stroke-width="3.0" stroke-linecap="round" />
<path d="M276.0,123.0 L326.0,123.0" stroke="#2db572" stroke-width="3.0" stroke-linecap="round" />
<path d="M446.0,123.0 L532.0,123.0" stroke="#2db572" stroke-width="3.0" stroke-linecap="round" />
<path d="M582.0,123.0 L632.0,123.0" stroke="#2db572" stroke-width="3.0" stroke-linecap="round" />
<path d="M226.0,123.0 L276.0,123.0" stroke="#2db572" stroke-width="3.0" stroke-linecap="round" />
<path d="M532.0,123.0 L582.0,123.0" stroke="#2db572" stroke-width="3.0" stroke-linecap="round" />
<path d="M80.0,120.0 L140.0,120.0" stroke="#e63946" stroke-width="3.0" stroke-linecap="round" />
<path d="M326.0,120.0 L386.0,120.0" stroke="#e63946" stroke-width="3.0" stroke-linecap="round" />
<path d="M386.0,120.0 L446.0,120.0" stroke="#e63946" stroke-width="3.0" stroke-linecap="round" />
<path d="M632.0,120.0 L692.0,120.0" stroke="#e63946" stroke-width="3.0" stroke-linecap="round" />
<path d="M140.0,120.0 L226.0,120.0" stroke="#e63946" stroke-width="3.0" stroke-linecap="round" />
<path d="M276.0,120.0 L326.0,120.0" stroke="#e63946" stroke-width="3.0" stroke-linecap="round" />
<path d="M446.0,120.0 L532.0,120.0" stroke="#e63946" stroke-width="3.0" stroke-linecap="round" />
<path d="M582.0,120.0 L632.0,120.0" stroke="#e63946" stroke-width="3.0" stroke-linecap="round" />
<path d="M226.0,120.0 L276.0,120.0" stroke="#e63946" stroke-width="3.0" stroke-linecap="round" />
<path d="M532.0,120.0 L582.0,120.0" stroke="#e63946" stroke-width="3.0" stroke-linecap="round" />
<rect x="75.0" y="115.0" width="10.0" height="25.0" rx="5.0" ry="5.0" fill="#ffffff" stroke="#333333" stroke-width="1.5" />
<rect x="135.0" y="115.0" width="10.0" height="25.0" rx="5.0" ry="5.0" fill="#ffffff" stroke="#333333" stroke-width="1.5" />
<rect x="321.0" y="115.0" width="10.0" height="25.0" rx="5.0" ry="5.0" fill="#ffffff" stroke="#333333" stroke-width="1.5" />
<rect x="381.0" y="115.0" width="10.0" height="25.0" rx="5.0" ry="5.0" fill="#ffffff" stroke="#333333" stroke-width="1.5" />
<rect x="441.0" y="115.0" width="10.0" height="25.0" rx="5.0" ry="5.0" fill="#ffffff" stroke="#333333" stroke-width="1.5" />
<rect x="627.0" y="115.0" width="10.0" height="25.0" rx="5.0" ry="5.0" fill="#ffffff" stroke="#333333" stroke-width="1.5" />
<rect x="687.0" y="115.0" width="10.0" height="25.0" rx="5.0" ry="5.0" fill="#ffffff" stroke="#333333" stroke-width="1.5" />
<text x="80.0" y="104.0" font-size="13.0" fill="#e0e0e0" font-family="'Helvetica Neue', Helvetica, Arial, sans-serif" text-anchor="middle" dominant-baseline="auto">Raw</text>
<text x="326.0" y="104.0" font-size="13.0" fill="#e0e0e0" font-family="'Helvetica Neue', Helvetica, Arial, sans-serif" text-anchor="middle" dominant-baseline="auto">Align</text>
<text x="632.0" y="104.0" font-size="13.0" fill="#e0e0e0" font-family="'Helvetica Neue', Helvetica, Arial, sans-serif" text-anchor="middle" dominant-baseline="auto">Quantify</text>
<text x="140.0" y="104.0" font-size="13.0" fill="#e0e0e0" font-family="'Helvetica Neue', Helvetica, Arial, sans-serif" text-anchor="middle" dominant-baseline="auto">QC</text>
<text x="386.0" y="104.0" font-size="13.0" fill="#e0e0e0" font-family="'Helvetica Neue', Helvetica, Arial, sans-serif" text-anchor="middle" dominant-baseline="auto">Sort</text>
<text x="692.0" y="151.0" font-size="13.0" fill="#e0e0e0" font-family="'Helvetica Neue', Helvetica, Arial, sans-serif" text-anchor="middle" dominant-baseline="hanging">Report</text>
<text x="446.0" y="104.0" font-size="13.0" fill="#e0e0e0" font-family="'Helvetica Neue', Helvetica, Arial, sans-serif" text-anchor="middle" dominant-baseline="auto">Dedup</text>
<rect x="30.0" y="185.0" width="100.32" height="168.0" rx="6" ry="6" fill="rgba(0, 0, 0, 0.3)" />
<path d="M42.0,209.0 L66.0,209.0" stroke="#e63946" stroke-width="3.0" stroke-linecap="round" />
<text x="78.0" y="209.0" font-size="14.0" fill="#e0e0e0" font-family="'Helvetica Neue', Helvetica, Arial, sans-serif" dominant-baseline="central">Line 1</text>
<path d="M42.0,233.0 L66.0,233.0" stroke="#2db572" stroke-width="3.0" stroke-linecap="round" />
<text x="78.0" y="233.0" font-size="14.0" fill="#e0e0e0" font-family="'Helvetica Neue', Helvetica, Arial, sans-serif" dominant-baseline="central">Line 2</text>
<path d="M42.0,257.0 L66.0,257.0" stroke="#0570b0" stroke-width="3.0" stroke-linecap="round" />
<text x="78.0" y="257.0" font-size="14.0" fill="#e0e0e0" font-family="'Helvetica Neue', Helvetica, Arial, sans-serif" dominant-baseline="central">Line 3</text>
<path d="M42.0,281.0 L66.0,281.0" stroke="#f5c542" stroke-width="3.0" stroke-linecap="round" />
<text x="78.0" y="281.0" font-size="14.0" fill="#e0e0e0" font-family="'Helvetica Neue', Helvetica, Arial, sans-serif" dominant-baseline="central">Line 4</text>
<path d="M42.0,305.0 L66.0,305.0" stroke="#ff8c00" stroke-width="3.0" stroke-linecap="round" />
<text x="78.0" y="305.0" font-size="14.0" fill="#e0e0e0" font-family="'Helvetica Neue', Helvetica, Arial, sans-serif" dominant-baseline="central">Line 5</text>
<path d="M42.0,329.0 L66.0,329.0" stroke="#7b2d3b" stroke-width="3.0" stroke-linecap="round" />
<text x="78.0" y="329.0" font-size="14.0" fill="#e0e0e0" font-family="'Helvetica Neue', Helvetica, Arial, sans-serif" dominant-baseline="central">Line 6</text>
<text x="772.0" y="369.0" font-size="8" fill="rgba(150, 150, 150, 0.6)" font-family="'Helvetica Neue', Helvetica, Arial, sans-serif" text-anchor="end">created with nf-metro v0.4.4+dev</text>
</svg>