<?xml version="1.0" encoding="UTF-8"?>
<svg xmlns="http://www.w3.org/2000/svg" xmlns:xlink="http://www.w3.org/1999/xlink"
     width="544" height="755" viewBox="0 0 544 755">
<defs>
</defs>
<rect x="0" y="0" width="544" height="755" fill="#2b2b2b" />
<text x="60.0" y="30" font-size="18.0" fill="#ffffff" font-family="'Helvetica Neue', Helvetica, Arial, sans-serif" font-weight="bold">Wide Fan-Out</text>
<rect x="30.0" y="85.0" width="184.5" height="70.0" rx="8" ry="8" fill="rgba(255, 255, 255, 0.06)" stroke="rgba(255, 255, 255, 0.2)" stroke-width="1.0" />
<circle cx="39.0" cy="72.0" r="9" fill="#333333" />
<text x="39.0" y="72.0" font-size="9" fill="#ffffff" font-family="'Helvetica Neue', Helvetica, Arial, sans-serif" font-weight="bold" text-anchor="middle" dominant-baseline="central">1</text>
<text x="53.0" y="72.0" font-size="10.0" fill="#aaaaaa" font-family="'Helvetica Neue', Helvetica, Arial, sans-serif" dominant-baseline="central">Source</text>
<rect x="264.5" y="85.0" width="160.0" height="70.0" rx="8" ry="8" fill="rgba(255, 255, 255, 0.06)" stroke="rgba(255, 255, 255, 0.2)" stroke-width="1.0" />
<circle cx="273.5" cy="72.0" r="9" fill="#333333" />
<text x="273.5" y="72.0" font-size="9" fill="#ffffff" font-family="'Helvetica Neue', Helvetica, Arial, sans-serif" font-weight="bold" text-anchor="middle" dominant-baseline="central">2</text>
<text x="287.5" y="72.0" font-size="10.0" fill="#aaaaaa" font-family="'Helvetica Neue', Helvetica, Arial, sans-serif" dominant-baseline="central">Target A</text>
<rect x="264.5" y="195.0" width="160.0" height="70.0" rx="8" ry="8" fill="rgba(255, 255, 255, 0.06)" stroke="rgba(255, 255, 255, 0.2)" stroke-width="1.0" />
<circle cx="273.5" cy="182.0" r="9" fill="#333333" />
<text x="273.5" y="182.0" font-size="9" fill="#ffffff" font-family="'Helvetica Neue', Helvetica, Arial, sans-serif" font-weight="bold" text-anchor="middle" dominant-baseline="central">3</text>
<text x="287.5" y="182.0" font-size="10.0" fill="#aaaaaa" font-family="'Helvetica Neue', Helvetica, Arial, sans-serif" dominant-baseline="central">Target B</text>
<rect x="264.5" y="305.0" width="160.0" height="70.0" rx="8" ry="8" fill="rgba(255, 255, 255, 0.06)" stroke="rgba(255, 255, 255, 0.2)" stroke-width="1.0" />
<circle cx="273.5" cy="292.0" r="9" fill="#333333" />
<text x="273.5" y="292.0" font-size="9" fill="#ffffff" font-family="'Helvetica Neue', Helvetica, Arial, sans-serif" font-weight="bold" text-anchor="middle" dominant-baseline="central">4</text>
<text x="287.5" y="292.0" font-size="10.0" fill="#aaaaaa" font-family="'Helvetica Neue', Helvetica, Arial, sans-serif" dominant-baseline="central">Target C</text>
<rect x="264.5" y="415.0" width="160.0" height="70.0" rx="8" ry="8" fill="rgba(255, 255, 255, 0.06)" stroke="rgba(255, 255, 255, 0.2)" stroke-width="1.0" />
<circle cx="273.5" cy="402.0" r="9" fill="#333333" />
<text x="273.5" y="402.0" font-size="9" fill="#ffffff" font-family="'Helvetica Neue', Helvetica, Arial, sans-serif" font-weight="bold" text-anchor="middle" dominant-baseline="central">5</text>
<text x="287.5" y="402.0" font-size="10.0" fill="#aaaaaa" font-family="'Helvetica Neue', Helvetica, Arial, sans-serif" dominant-baseline="central">Target D</text>
<path d="M314.5,459.0 L374.5,459.0" stroke="#f5c542" stroke-width="3.0" stroke-linecap="round" />
<path d="M264.5,459.0 L314.5,459.0" stroke="#f5c542" stroke-width="3.0" stroke-linecap="round" />
<path d="M314.5,346.0 L374.5,346.0" stroke="#0570b0" stroke-width="3.0" stroke-linecap="round" />
<path d="M264.5,346.0 L314.5,346.0" stroke="#0570b0" stroke-width="3.0" stroke-linecap="round" />
<path d="M314.5,233.0 L374.5,233.0" stroke="#2db572" stroke-width="3.0" stroke-linecap="round" />
<path d="M264.5,233.0 L314.5,233.0" stroke="#2db572" stroke-width="3.0" stroke-linecap="round" />
<path d="M80.0,129.0 L140.0,129.0" stroke="#f5c542" stroke-width="3.0" stroke-linecap="round" />
<path d="M140.0,129.0 L214.5,129.0" stroke="#f5c542" stroke-width="3.0" stroke-linecap="round" />
<path d="M214.5,129.0 L224.5,129.0" stroke="#f5c542" stroke-width="3.0" stroke-linecap="round" />
<path d="M224.5,129.0 L230.5,129.0 Q240.5,129.0,240.5,139.0 L240.5,443.0 Q240.5,459.0,256.5,459.0 L264.5,459.0" stroke="#f5c542" stroke-width="3.0" fill="none" stroke-linecap="round" stroke-linejoin="round" />
<path d="M80.0,126.0 L140.0,126.0" stroke="#0570b0" stroke-width="3.0" stroke-linecap="round" />
<path d="M140.0,126.0 L214.5,126.0" stroke="#0570b0" stroke-width="3.0" stroke-linecap="round" />
<path d="M214.5,126.0 L224.5,126.0" stroke="#0570b0" stroke-width="3.0" stroke-linecap="round" />
<path d="M224.5,126.0 L230.5,126.0 Q243.5,126.0,243.5,139.0 L243.5,333.0 Q243.5,346.0,256.5,346.0 L264.5,346.0" stroke="#0570b0" stroke-width="3.0" fill="none" stroke-linecap="round" stroke-linejoin="round" />
<path d="M80.0,123.0 L140.0,123.0" stroke="#2db572" stroke-width="3.0" stroke-linecap="round" />
<path d="M140.0,123.0 L214.5,123.0" stroke="#2db572" stroke-width="3.0" stroke-linecap="round" />
<path d="M214.5,123.0 L224.5,123.0" stroke="#2db572" stroke-width="3.0" stroke-linecap="round" />
<path d="M224.5,123.0 L230.5,123.0 Q246.5,123.0,246.5,139.0 L246.5,223.0 Q246.5,233.0,256.5,233.0 L264.5,233.0" stroke="#2db572" stroke-width="3.0" fill="none" stroke-linecap="round" stroke-linejoin="round" />
<path d="M80.0,120.0 L140.0,120.0" stroke="#e63946" stroke-width="3.0" stroke-linecap="round" />
<path d="M314.5,120.0 L374.5,120.0" stroke="#e63946" stroke-width="3.0" stroke-linecap="round" />
<path d="M140.0,120.0 L214.5,120.0" stroke="#e63946" stroke-width="3.0" stroke-linecap="round" />
<path d="M264.5,120.0 L314.5,120.0" stroke="#e63946" stroke-width="3.0" stroke-linecap="round" />
<path d="M214.5,120.0 L224.5,120.0" stroke="#e63946" stroke-width="3.0" stroke-linecap="round" />
<path d="M224.5,120.0 L264.5,120.0" stroke="#e63946" stroke-width="3.0" stroke-linecap="round" />
<rect x="75.0" y="115.0" width="10.0" height="19.0" rx="5.0" ry="5.0" fill="#ffffff" stroke="#333333" stroke-width="1.5" />
<rect x="135.0" y="115.0" width="10.0" height="19.0" rx="5.0" ry="5.0" fill="#ffffff" stroke="#333333" stroke-width="1.5" />
<rect x="309.5" y="115.0" width="10.0" height="10.0" rx="5.0" ry="5.0" fill="#ffffff" stroke="#333333" stroke-width="1.5" />
<rect x="369.5" y="115.0" width="10.0" height="10.0" rx="5.0" ry="5.0" fill="#ffffff" stroke="#333333" stroke-width="1.5" />
<rect x="309.5" y="228.0" width="10.0" height="10.0" rx="5.0" ry="5.0" fill="#ffffff" stroke="#333333" stroke-width="1.5" />
<rect x="369.5" y="228.0" width="10.0" height="10.0" rx="5.0" ry="5.0" fill="#ffffff" stroke="#333333" stroke-width="1.5" />
<rect x="309.5" y="341.0" width="10.0" height="10.0" rx="5.0" ry="5.0" fill="#ffffff" stroke="#333333" stroke-width="1.5" />
<rect x="369.5" y="341.0" width="10.0" height="10.0" rx="5.0" ry="5.0" fill="#ffffff" stroke="#333333" stroke-width="1.5" />
<rect x="309.5" y="454.0" width="10.0" height="10.0" rx="5.0" ry="5.0" fill="#ffffff" stroke="#333333" stroke-width="1.5" />
<rect x="369.5" y="454.0" width="10.0" height="10.0" rx="5.0" ry="5.0" fill="#ffffff" stroke="#333333" stroke-width="1.5" />
<text x="80.0" y="137.0" font-size="10.0" fill="#e0e0e0" font-family="'Helvetica Neue', Helvetica, Arial, sans-serif" text-anchor="middle" dominant-baseline="hanging">Input</text>
<text x="314.5" y="136.0" font-size="10.0" fill="#e0e0e0" font-family="'Helvetica Neue', Helvetica, Arial, sans-serif" text-anchor="middle" dominant-baseline="hanging">Step A1</text>
<text x="314.5" y="247.0" font-size="10.0" fill="#e0e0e0" font-family="'Helvetica Neue', Helvetica, Arial, sans-serif" text-anchor="middle" dominant-baseline="hanging">Step B1</text>
<text x="314.5" y="357.0" font-size="10.0" fill="#e0e0e0" font-family="'Helvetica Neue', Helvetica, Arial, sans-serif" text-anchor="middle" dominant-baseline="hanging">Step C1</text>
<text x="314.5" y="467.0" font-size="10.0" fill="#e0e0e0" font-family="'Helvetica Neue', Helvetica, Arial, sans-serif" text-anchor="middle" dominant-baseline="hanging">Step D1</text>
<text x="140.0" y="104.0" font-size="10.0" fill="#e0e0e0" font-family="'Helvetica Neue', Helvetica, Arial, sans-serif" text-anchor="middle" dominant-baseline="auto">Process</text>
<text x="374.5" y="104.0" font-size="10.0" fill="#e0e0e0" font-family="'Helvetica Neue', Helvetica, Arial, sans-serif" text-anchor="middle" dominant-baseline="auto">Step A2</text>
<text x="374.5" y="217.0" font-size="10.0" fill="#e0e0e0" font-family="'Helvetica Neue', Helvetica, Arial, sans-serif" text-anchor="middle" dominant-baseline="auto">Step B2</text>
<text x="374.5" y="330.0" font-size="10.0" fill="#e0e0e0" font-family="'Helvetica Neue', Helvetica, Arial, sans-serif" text-anchor="middle" dominant-baseline="auto">Step C2</text>
<text x="374.5" y="443.0" font-size="10.0" fill="#e0e0e0" font-family="'Helvetica Neue', Helvetica, Arial, sans-serif" text-anchor="middle" dominant-baseline="auto">Step D2</text>
<rect x="30.0" y="515.0" width="86.4" height="120.0" rx="6" ry="6" fill="rgba(0, 0, 0, 0.3)" />
<path d="M42.0,539.0 L66.0,539.0" stroke="#e63946" stroke-width="3.0" stroke-linecap="round" />
<text x="78.0" y="539.0" font-size="11.0" fill="#e0e0e0" font-family="'Helvetica Neue', Helvetica, Arial, sans-serif" dominant-baseline="central">Alpha</text>
<path d="M42.0,563.0 L66.0,563.0" stroke="#2db572" stroke-width="3.0" stroke-linecap="round" />
<text x="78.0" y="563.0" font-size="11.0" fill="#e0e0e0" font-family="'Helvetica Neue', Helvetica, Arial, sans-serif" dominant-baseline="central">Beta</text>
<path d="M42.0,587.0 L66.0,587.0" stroke="#0570b0" stroke-width="3.0" stroke-linecap="round" />
<text x="78.0" y="587.0" font-size="11.0" fill="#e0e0e0" font-family="'Helvetica Neue', Helvetica, Arial, sans-serif" dominant-baseline="central">Gamma</text>
<path d="M42.0,611.0 L66.0,611.0" stroke="#f5c542" stroke-width="3.0" stroke-linecap="round" />
<text x="78.0" y="611.0" font-size="11.0" fill="#e0e0e0" font-family="'Helvetica Neue', Helvetica, Arial, sans-serif" dominant-baseline="central">Delta</text>
<text x="514.0" y="747" font-size="8" fill="rgba(150, 150, 150, 0.6)" font-family="'Helvetica Neue', Helvetica, Arial, sans-serif" text-anchor="end">created with nf-metro v0.1.0+dev</text>
</svg>